<?xml version="1.0" encoding="UTF-8"?>
<!DOCTYPE svg PUBLIC "-//W3C//DTD SVG 1.1//EN" "http://www.w3.org/Graphics/SVG/1.1/DTD/svg11.dtd">
<svg xmlns="http://www.w3.org/2000/svg" version="1.1" width="509px" height="490px" style="shape-rendering:geometricPrecision; text-rendering:geometricPrecision; image-rendering:optimizeQuality; fill-rule:evenodd; clip-rule:evenodd" xmlns:xlink="http://www.w3.org/1999/xlink">
<g><path style="opacity:0.331" fill="#a0a0a0" d="M 258.5,51.5 C 244.151,51.3436 229.817,51.677 215.5,52.5C 223.78,50.9844 232.28,50.3177 241,50.5C 247.01,50.5005 252.843,50.8338 258.5,51.5 Z"/></g>
<g><path style="opacity:0.999" fill="#0e0e0e" d="M 258.5,51.5 C 261.881,51.4595 265.214,51.7929 268.5,52.5C 271.909,53.9034 275.575,54.5701 279.5,54.5C 286.707,55.3853 293.707,57.052 300.5,59.5C 301.78,60.9313 303.447,61.5979 305.5,61.5C 305.833,61.5 306.167,61.5 306.5,61.5C 307.78,62.9313 309.447,63.5979 311.5,63.5C 315.787,64.6483 319.787,66.315 323.5,68.5C 325.426,70.2927 327.759,71.2927 330.5,71.5C 334.335,73.2495 338.001,75.2495 341.5,77.5C 341.973,78.9063 342.973,79.573 344.5,79.5C 348.078,81.0751 351.411,83.0751 354.5,85.5C 354.5,86.5 354.5,87.5 354.5,88.5C 350.991,90.2255 347.325,91.5589 343.5,92.5C 341.139,92.6741 338.806,93.0074 336.5,93.5C 333.304,92.0713 330.304,90.4046 327.5,88.5C 327.027,87.0937 326.027,86.427 324.5,86.5C 319.533,85.0116 314.866,83.0116 310.5,80.5C 309.365,78.7868 307.698,78.1201 305.5,78.5C 303.421,78.0293 301.421,77.3627 299.5,76.5C 295.622,73.9871 291.289,72.6538 286.5,72.5C 281.103,71.817 275.769,70.817 270.5,69.5C 267.124,67.9177 263.458,67.2511 259.5,67.5C 247.5,67.5 235.5,67.5 223.5,67.5C 219.21,67.1977 215.21,67.8643 211.5,69.5C 210.833,69.5 210.167,69.5 209.5,69.5C 205.076,69.2724 201.076,70.2724 197.5,72.5C 191.5,74.1667 185.5,75.8333 179.5,77.5C 176.458,77.7329 173.792,78.7329 171.5,80.5C 171.158,81.3382 170.492,81.6716 169.5,81.5C 167.447,81.4021 165.78,82.0687 164.5,83.5C 163.486,84.6737 162.153,85.3404 160.5,85.5C 158.847,85.6596 157.514,86.3263 156.5,87.5C 137.195,98.1218 119.862,111.455 104.5,127.5C 103.094,127.973 102.427,128.973 102.5,130.5C 88.5853,147.082 77.5853,165.415 69.5,185.5C 68.0687,186.78 67.4021,188.447 67.5,190.5C 66.2616,192.214 65.595,194.214 65.5,196.5C 63.9605,198.838 63.2938,201.505 63.5,204.5C 61.5023,208.126 60.5023,212.126 60.5,216.5C 60.5,217.167 60.5,217.833 60.5,218.5C 59.037,221.203 58.2037,224.203 58,227.5C 57.5006,232.823 57.334,238.156 57.5,243.5C 57.5,243.833 57.5,244.167 57.5,244.5C 56.1667,248.833 56.1667,253.167 57.5,257.5C 57.334,262.844 57.5006,268.177 58,273.5C 58.1981,275.382 58.6981,277.048 59.5,278.5C 60.7815,283.656 61.7815,288.989 62.5,294.5C 62.7689,299.264 64.1022,303.597 66.5,307.5C 66.0535,310.01 66.7202,312.01 68.5,313.5C 69.404,314.209 69.7373,315.209 69.5,316.5C 69.1201,318.698 69.7868,320.365 71.5,321.5C 72.3382,321.842 72.6716,322.508 72.5,323.5C 72.4021,325.553 73.0687,327.22 74.5,328.5C 76.6744,331.515 78.3411,334.849 79.5,338.5C 79.427,340.027 80.0937,341.027 81.5,341.5C 82.6737,342.514 83.3404,343.847 83.5,345.5C 83.427,347.027 84.0937,348.027 85.5,348.5C 86.3382,348.842 86.6716,349.508 86.5,350.5C 86.427,352.027 87.0937,353.027 88.5,353.5C 88.427,355.027 89.0937,356.027 90.5,356.5C 90.427,358.027 91.0937,359.027 92.5,359.5C 92.7376,361.404 93.7376,362.738 95.5,363.5C 96.0798,365.749 97.4131,367.415 99.5,368.5C 100.5,368.833 101.167,369.5 101.5,370.5C 102.08,372.749 103.413,374.415 105.5,375.5C 106.167,375.5 106.5,375.833 106.5,376.5C 106.833,377.5 107.5,378.167 108.5,378.5C 111.5,380.833 114.167,383.5 116.5,386.5C 117.262,388.262 118.596,389.262 120.5,389.5C 128.606,396.606 137.272,402.94 146.5,408.5C 146.821,410.048 147.821,410.715 149.5,410.5C 167.184,420.281 185.85,427.281 205.5,431.5C 208.544,433.011 211.878,433.678 215.5,433.5C 215.833,433.5 216.167,433.5 216.5,433.5C 224.286,434.928 232.286,435.595 240.5,435.5C 245.346,435.499 250.012,435.166 254.5,434.5C 262.145,434.788 269.478,433.788 276.5,431.5C 279.877,431.932 282.877,431.265 285.5,429.5C 292.364,428.873 298.697,426.873 304.5,423.5C 305.391,422.89 306.391,422.557 307.5,422.5C 309.698,422.88 311.365,422.213 312.5,420.5C 313.93,419.463 315.597,418.796 317.5,418.5C 319.153,418.34 320.486,417.674 321.5,416.5C 322.514,415.326 323.847,414.66 325.5,414.5C 327.153,414.34 328.486,413.674 329.5,412.5C 329.842,411.662 330.508,411.328 331.5,411.5C 333.027,411.573 334.027,410.906 334.5,409.5C 334.842,408.662 335.508,408.328 336.5,408.5C 338.027,408.573 339.027,407.906 339.5,406.5C 340.899,405.11 342.566,404.11 344.5,403.5C 346.404,403.262 347.738,402.262 348.5,400.5C 350.027,400.573 351.027,399.906 351.5,398.5C 353.749,397.92 355.415,396.587 356.5,394.5C 359.764,392.906 362.431,390.573 364.5,387.5C 369.5,384.5 373.5,380.5 376.5,375.5C 376.833,374.5 377.5,373.833 378.5,373.5C 380.914,372.089 382.581,370.089 383.5,367.5C 384.5,367.167 385.167,366.5 385.5,365.5C 386.906,365.027 387.573,364.027 387.5,362.5C 389.262,361.738 390.262,360.404 390.5,358.5C 391.906,358.027 392.573,357.027 392.5,355.5C 393.906,355.027 394.573,354.027 394.5,352.5C 396.25,351.341 397.25,349.674 397.5,347.5C 398.906,347.027 399.573,346.027 399.5,344.5C 399.328,343.508 399.662,342.842 400.5,342.5C 402.25,341.341 403.25,339.674 403.5,337.5C 403.992,335.181 404.992,333.181 406.5,331.5C 407.674,330.486 408.34,329.153 408.5,327.5C 408.402,325.447 409.069,323.78 410.5,322.5C 411.931,321.22 412.598,319.553 412.5,317.5C 414.213,316.365 414.88,314.698 414.5,312.5C 414.433,311.041 414.766,309.708 415.5,308.5C 417.868,306.044 418.868,303.044 418.5,299.5C 420.04,297.162 420.706,294.495 420.5,291.5C 421.913,288.781 422.58,285.781 422.5,282.5C 422.676,276.428 423.343,270.428 424.5,264.5C 425.833,255.167 425.833,245.833 424.5,236.5C 424.5,236.167 424.5,235.833 424.5,235.5C 424.698,230.25 424.031,225.25 422.5,220.5C 422.5,220.167 422.5,219.833 422.5,219.5C 422.276,215.821 421.942,212.154 421.5,208.5C 423.027,208.573 424.027,207.906 424.5,206.5C 427.349,204.15 430.515,202.15 434,200.5C 435.039,201.244 435.539,202.244 435.5,203.5C 435.171,206.228 435.837,208.562 437.5,210.5C 438.219,212.764 438.552,215.097 438.5,217.5C 438.401,220.237 438.735,222.904 439.5,225.5C 439.5,225.833 439.5,226.167 439.5,226.5C 441.164,247.58 440.497,268.58 437.5,289.5C 437.5,289.833 437.5,290.167 437.5,290.5C 435.214,296.565 433.547,302.898 432.5,309.5C 431.262,311.214 430.595,313.214 430.5,315.5C 429.241,322.003 426.907,328.003 423.5,333.5C 421.659,335.849 420.326,338.515 419.5,341.5C 416.67,347.83 413.337,353.83 409.5,359.5C 408.094,359.973 407.427,360.973 407.5,362.5C 406.094,362.973 405.427,363.973 405.5,365.5C 404.974,367.23 403.974,368.564 402.5,369.5C 401.094,369.973 400.427,370.973 400.5,372.5C 400.5,373.167 400.167,373.5 399.5,373.5C 397.738,374.262 396.738,375.596 396.5,377.5C 395.833,378.833 394.833,379.833 393.5,380.5C 392.094,380.973 391.427,381.973 391.5,383.5C 390.833,384.833 389.833,385.833 388.5,386.5C 387.5,386.833 386.833,387.5 386.5,388.5C 384.5,391.167 382.167,393.5 379.5,395.5C 378.5,395.833 377.833,396.5 377.5,397.5C 371.778,403.555 365.444,408.889 358.5,413.5C 356.973,413.427 355.973,414.094 355.5,415.5C 354.71,416.401 353.71,417.068 352.5,417.5C 350.973,417.427 349.973,418.094 349.5,419.5C 339.26,426.454 328.26,432.121 316.5,436.5C 314.447,436.402 312.78,437.069 311.5,438.5C 305.507,441.274 299.174,443.274 292.5,444.5C 289.273,444.676 286.273,445.343 283.5,446.5C 280.219,446.42 277.219,447.087 274.5,448.5C 250.508,452.514 226.508,452.348 202.5,448C 197.165,447.178 192.165,445.678 187.5,443.5C 185.485,442.076 183.152,441.41 180.5,441.5C 177.848,441.59 175.515,440.924 173.5,439.5C 172.365,437.787 170.698,437.12 168.5,437.5C 160.86,434.677 153.527,431.344 146.5,427.5C 146.027,426.094 145.027,425.427 143.5,425.5C 142.508,425.672 141.842,425.338 141.5,424.5C 141.027,423.094 140.027,422.427 138.5,422.5C 137.508,422.672 136.842,422.338 136.5,421.5C 136.027,420.094 135.027,419.427 133.5,419.5C 133.027,418.094 132.027,417.427 130.5,417.5C 130.027,416.094 129.027,415.427 127.5,415.5C 127.027,414.094 126.027,413.427 124.5,413.5C 123.738,411.738 122.404,410.738 120.5,410.5C 119.415,408.413 117.749,407.08 115.5,406.5C 114.415,404.413 112.749,403.08 110.5,402.5C 109.167,401.833 108.167,400.833 107.5,399.5C 106.089,397.086 104.089,395.419 101.5,394.5C 99.1667,392.833 97.1667,390.833 95.5,388.5C 95.2624,386.596 94.2624,385.262 92.5,384.5C 90.5,383.167 88.8333,381.5 87.5,379.5C 87.573,377.973 86.9063,376.973 85.5,376.5C 82.4838,373.48 79.8171,370.146 77.5,366.5C 77.1298,363.733 75.7964,361.733 73.5,360.5C 73.573,358.973 72.9063,357.973 71.5,357.5C 71.1667,356.833 70.8333,356.167 70.5,355.5C 70.573,353.973 69.9063,352.973 68.5,352.5C 66.9752,350.784 65.9752,348.784 65.5,346.5C 64.6743,343.515 63.341,340.849 61.5,338.5C 61.3404,336.847 60.6737,335.514 59.5,334.5C 58.3263,333.486 57.6596,332.153 57.5,330.5C 57.5979,328.447 56.9313,326.78 55.5,325.5C 54.596,324.791 54.2627,323.791 54.5,322.5C 52.4079,315.34 50.0746,308.34 47.5,301.5C 43.2179,280.731 41.2179,259.731 41.5,238.5C 41.4372,233.797 41.7705,229.13 42.5,224.5C 44.0114,221.456 44.678,218.122 44.5,214.5C 44.3253,212.379 44.6586,210.379 45.5,208.5C 46.9238,206.485 47.5905,204.152 47.5,201.5C 49.0395,199.162 49.7062,196.495 49.5,193.5C 49.5,193.167 49.5,192.833 49.5,192.5C 50.9313,191.22 51.5979,189.553 51.5,187.5C 51.5,187.167 51.5,186.833 51.5,186.5C 52.9313,185.22 53.5979,183.553 53.5,181.5C 53.5569,180.391 53.8902,179.391 54.5,178.5C 55.9313,177.22 56.5979,175.553 56.5,173.5C 57.2271,171.046 58.2271,168.713 59.5,166.5C 60.9063,166.027 61.573,165.027 61.5,163.5C 61.5,163.167 61.5,162.833 61.5,162.5C 62.9063,162.027 63.573,161.027 63.5,159.5C 63.5,159.167 63.5,158.833 63.5,158.5C 65.588,156.664 66.9213,154.331 67.5,151.5C 67.3284,150.508 67.6618,149.842 68.5,149.5C 69.9063,149.027 70.573,148.027 70.5,146.5C 70.3284,145.508 70.6618,144.842 71.5,144.5C 72.9063,144.027 73.573,143.027 73.5,141.5C 74.9063,141.027 75.573,140.027 75.5,138.5C 77.2624,137.738 78.2624,136.404 78.5,134.5C 80.5869,133.415 81.9202,131.749 82.5,129.5C 82.3284,128.508 82.6618,127.842 83.5,127.5C 84.5,127.167 85.1667,126.5 85.5,125.5C 87.5869,124.415 88.9202,122.749 89.5,120.5C 93.5658,117.437 96.8991,113.771 99.5,109.5C 103.771,106.899 107.437,103.566 110.5,99.5C 113.089,98.5806 115.089,96.914 116.5,94.5C 118.749,93.9202 120.415,92.5869 121.5,90.5C 123.027,90.573 124.027,89.9063 124.5,88.5C 126.404,88.2624 127.738,87.2624 128.5,85.5C 130.027,85.573 131.027,84.9063 131.5,83.5C 132.29,82.5987 133.29,81.9321 134.5,81.5C 136.027,81.573 137.027,80.9063 137.5,79.5C 138.514,78.3263 139.847,77.6596 141.5,77.5C 143.027,77.573 144.027,76.9063 144.5,75.5C 146.849,73.659 149.515,72.3257 152.5,71.5C 154.153,71.3404 155.486,70.6737 156.5,69.5C 157.209,68.596 158.209,68.2627 159.5,68.5C 161.967,68.2451 163.967,67.2451 165.5,65.5C 168.649,65.5848 171.316,64.5848 173.5,62.5C 175.898,62.7406 177.898,62.0739 179.5,60.5C 182.916,60.4725 185.916,59.4725 188.5,57.5C 189.919,56.5489 191.585,56.2155 193.5,56.5C 196.781,56.5797 199.781,55.913 202.5,54.5C 206.567,52.9462 210.9,52.2796 215.5,52.5C 229.817,51.677 244.151,51.3436 258.5,51.5 Z"/></g>
<g><path style="opacity:0.216" fill="#a5a5a5" d="M 268.5,52.5 C 272.425,52.4299 276.091,53.0966 279.5,54.5C 275.575,54.5701 271.909,53.9034 268.5,52.5 Z"/></g>
<g><path style="opacity:0.702" fill="#7e7e7e" d="M 202.5,54.5 C 199.781,55.913 196.781,56.5797 193.5,56.5C 196.219,55.087 199.219,54.4203 202.5,54.5 Z"/></g>
<g><path style="opacity:0.561" fill="#969696" d="M 188.5,57.5 C 185.916,59.4725 182.916,60.4725 179.5,60.5C 182.146,58.7475 185.146,57.7475 188.5,57.5 Z"/></g>
<g><path style="opacity:0.29" fill="#a6a6a6" d="M 300.5,59.5 C 302.553,59.4021 304.22,60.0687 305.5,61.5C 303.447,61.5979 301.78,60.9313 300.5,59.5 Z"/></g>
<g><path style="opacity:0.753" fill="#7b7b7b" d="M 179.5,60.5 C 177.898,62.0739 175.898,62.7406 173.5,62.5C 175.214,61.2616 177.214,60.595 179.5,60.5 Z"/></g>
<g><path style="opacity:0.239" fill="#b1b1b1" d="M 306.5,61.5 C 308.553,61.4021 310.22,62.0687 311.5,63.5C 309.447,63.5979 307.78,62.9313 306.5,61.5 Z"/></g>
<g><path style="opacity:0.875" fill="#717171" d="M 173.5,62.5 C 171.316,64.5848 168.649,65.5848 165.5,65.5C 167.792,63.7329 170.458,62.7329 173.5,62.5 Z"/></g>
<g><path style="opacity:0.565" fill="#808080" d="M 165.5,65.5 C 163.967,67.2451 161.967,68.2451 159.5,68.5C 161.033,66.7549 163.033,65.7549 165.5,65.5 Z"/></g>
<g><path style="opacity:0.318" fill="#a8a8a8" d="M 223.5,67.5 C 219.705,68.6167 215.705,69.2833 211.5,69.5C 215.21,67.8643 219.21,67.1977 223.5,67.5 Z"/></g>
<g><path style="opacity:0.137" fill="#bcbcbc" d="M 259.5,67.5 C 263.458,67.2511 267.124,67.9177 270.5,69.5C 266.613,69.3541 262.946,68.6874 259.5,67.5 Z"/></g>
<g><path style="opacity:0.282" fill="#808080" d="M 423.5,70.5 C 422.432,69.5655 421.099,69.2322 419.5,69.5C 421.396,68.5195 423.396,67.5195 425.5,66.5C 426.395,68.3448 425.728,69.6782 423.5,70.5 Z"/></g>
<g><path style="opacity:0.188" fill="#b5b5b5" d="M 323.5,68.5 C 326.241,68.7073 328.574,69.7073 330.5,71.5C 327.759,71.2927 325.426,70.2927 323.5,68.5 Z"/></g>
<g><path style="opacity:1" fill="#090909" d="M 419.5,69.5 C 421.099,69.2322 422.432,69.5655 423.5,70.5C 420.738,74.4391 417.738,78.2724 414.5,82C 410.199,81.6369 405.866,81.6369 401.5,82C 381.164,89.678 363.497,101.345 348.5,117C 346.807,117.847 345.14,118.68 343.5,119.5C 342.5,119.833 341.833,120.5 341.5,121.5C 340.094,121.973 339.427,122.973 339.5,124.5C 337.851,127.456 336.517,130.456 335.5,133.5C 333.431,137.044 333.098,140.71 334.5,144.5C 336.166,150.851 339.833,155.851 345.5,159.5C 345.821,161.048 346.821,161.715 348.5,161.5C 355.047,162.719 361.381,164.386 367.5,166.5C 371.295,167.617 375.295,168.283 379.5,168.5C 389.869,169.626 400.203,170.626 410.5,171.5C 413.845,173.217 417.511,173.884 421.5,173.5C 421.833,173.5 422.167,173.5 422.5,173.5C 424.265,174.461 426.265,174.795 428.5,174.5C 429.738,174.81 429.738,175.31 428.5,176C 426.527,176.495 424.527,176.662 422.5,176.5C 419.545,177.159 416.545,177.492 413.5,177.5C 397.922,174.218 382.255,173.718 366.5,176C 356.96,181.606 353.96,189.773 357.5,200.5C 357.821,202.048 358.821,202.715 360.5,202.5C 362.179,202.892 363.846,203.392 365.5,204C 366.677,206.158 366.01,207.658 363.5,208.5C 361.238,207.533 358.905,206.866 356.5,206.5C 352.705,205.383 348.705,204.717 344.5,204.5C 342.052,203.527 339.385,203.194 336.5,203.5C 332.662,203.022 329.329,204.022 326.5,206.5C 325.5,206.833 324.833,207.5 324.5,208.5C 321.5,212.167 318.167,215.5 314.5,218.5C 312.973,218.427 311.973,219.094 311.5,220.5C 310.5,220.833 309.833,221.5 309.5,222.5C 306.833,225.833 303.833,228.833 300.5,231.5C 298.596,231.738 297.262,232.738 296.5,234.5C 292.082,239.923 287.082,244.589 281.5,248.5C 280.5,248.833 279.833,249.5 279.5,250.5C 278.5,250.833 277.833,251.5 277.5,252.5C 276.167,254.5 274.5,256.167 272.5,257.5C 268.833,255.833 267.833,256.833 269.5,260.5C 267.66,262.669 265.326,264.002 262.5,264.5C 259.772,264.171 257.438,264.837 255.5,266.5C 249.041,271.124 247.708,277.124 251.5,284.5C 252.08,286.749 253.413,288.415 255.5,289.5C 259.167,292.167 262.833,294.833 266.5,297.5C 266.821,299.048 267.821,299.715 269.5,299.5C 271.027,299.427 272.027,300.094 272.5,301.5C 273.78,302.931 275.447,303.598 277.5,303.5C 278.78,304.931 280.447,305.598 282.5,305.5C 284.515,306.924 286.848,307.59 289.5,307.5C 295.822,308.277 302.155,308.444 308.5,308C 313.562,307.638 317.562,305.472 320.5,301.5C 321.993,300.688 322.66,299.355 322.5,297.5C 322.48,296.274 322.147,295.274 321.5,294.5C 320.199,291.899 318.866,289.232 317.5,286.5C 317.446,284.368 316.446,283.035 314.5,282.5C 313.662,282.158 313.328,281.492 313.5,280.5C 313.715,278.821 313.048,277.821 311.5,277.5C 311.715,275.821 311.048,274.821 309.5,274.5C 307.992,272.819 306.992,270.819 306.5,268.5C 306.34,266.847 305.674,265.514 304.5,264.5C 302.657,260.567 303.657,257.567 307.5,255.5C 308.833,254.833 309.833,253.833 310.5,252.5C 312.749,251.92 314.415,250.587 315.5,248.5C 317.404,248.262 318.738,247.262 319.5,245.5C 321.027,245.573 322.027,244.906 322.5,243.5C 324.027,243.573 325.027,242.906 325.5,241.5C 325.842,240.662 326.508,240.328 327.5,240.5C 329.027,240.573 330.027,239.906 330.5,238.5C 331.514,237.326 332.847,236.66 334.5,236.5C 336.027,236.573 337.027,235.906 337.5,234.5C 339.181,232.992 341.181,231.992 343.5,231.5C 345.027,231.573 346.027,230.906 346.5,229.5C 347.899,228.11 349.566,227.11 351.5,226.5C 353.027,226.573 354.027,225.906 354.5,224.5C 358.849,221.659 363.516,219.326 368.5,217.5C 370.027,217.573 371.027,216.906 371.5,215.5C 371.842,214.662 372.508,214.328 373.5,214.5C 375.027,214.573 376.027,213.906 376.5,212.5C 380.645,210.264 384.978,208.264 389.5,206.5C 391.698,206.88 393.365,206.213 394.5,204.5C 395.209,203.596 396.209,203.263 397.5,203.5C 399.027,203.573 400.027,202.906 400.5,201.5C 402.698,201.88 404.365,201.213 405.5,199.5C 408.836,197.269 412.503,195.603 416.5,194.5C 418.027,194.573 419.027,193.906 419.5,192.5C 421.181,190.992 423.181,189.992 425.5,189.5C 427.027,189.573 428.027,188.906 428.5,187.5C 428.818,184.375 429.818,181.542 431.5,179C 434.756,177.526 438.089,176.36 441.5,175.5C 443.698,175.88 445.365,175.213 446.5,173.5C 448.297,172.27 450.297,171.604 452.5,171.5C 457.453,170.684 462.286,169.35 467,167.5C 468.03,167.836 468.53,168.503 468.5,169.5C 461.576,179.094 453.576,187.76 444.5,195.5C 440.629,195.185 436.962,195.518 433.5,196.5C 427.856,199.798 422.189,203.131 416.5,206.5C 414.973,206.427 413.973,207.094 413.5,208.5C 410.451,210.863 407.118,212.863 403.5,214.5C 401.973,214.427 400.973,215.094 400.5,216.5C 398.206,218.653 395.54,220.32 392.5,221.5C 390.973,221.427 389.973,222.094 389.5,223.5C 386.124,226.194 382.457,228.527 378.5,230.5C 376.973,230.427 375.973,231.094 375.5,232.5C 373.973,232.427 372.973,233.094 372.5,234.5C 367.552,238.648 362.218,242.314 356.5,245.5C 354.973,245.427 353.973,246.094 353.5,247.5C 353.5,248.167 353.167,248.5 352.5,248.5C 350.973,248.427 349.973,249.094 349.5,250.5C 347.909,252.633 345.909,254.299 343.5,255.5C 341.973,255.427 340.973,256.094 340.5,257.5C 338.833,259.833 336.833,261.833 334.5,263.5C 333.252,264.334 332.585,265.667 332.5,267.5C 332.511,269.045 332.844,270.378 333.5,271.5C 333.833,272.833 334.167,274.167 334.5,275.5C 334.427,277.027 335.094,278.027 336.5,278.5C 336.738,280.404 337.738,281.738 339.5,282.5C 340.08,284.749 341.413,286.415 343.5,287.5C 345.262,288.262 346.262,289.596 346.5,291.5C 346.738,293.404 347.738,294.738 349.5,295.5C 351.008,297.181 352.008,299.181 352.5,301.5C 353.956,309.906 353.623,318.239 351.5,326.5C 350.921,329.331 349.588,331.664 347.5,333.5C 346.326,334.514 345.66,335.847 345.5,337.5C 344.876,339.754 343.543,341.421 341.5,342.5C 339.973,342.427 338.973,343.094 338.5,344.5C 338.158,345.338 337.492,345.672 336.5,345.5C 334.181,345.992 332.181,346.992 330.5,348.5C 329.791,349.404 328.791,349.737 327.5,349.5C 325.214,349.595 323.214,350.262 321.5,351.5C 318.848,351.41 316.515,352.076 314.5,353.5C 314.167,353.5 313.833,353.5 313.5,353.5C 309.922,353.549 306.589,354.215 303.5,355.5C 297.367,356.101 291.2,356.435 285,356.5C 274.452,356.293 263.952,355.793 253.5,355C 250.537,356.961 247.871,359.294 245.5,362C 242.311,362.842 239.311,364.175 236.5,366C 232.606,369.404 228.606,372.571 224.5,375.5C 223.5,375.833 222.833,376.5 222.5,377.5C 221.094,377.973 220.427,378.973 220.5,380.5C 219.589,384.457 218.589,388.457 217.5,392.5C 216.824,396.484 215.824,400.484 214.5,404.5C 211.396,407.101 208.396,409.934 205.5,413C 203.35,414.411 201.016,415.245 198.5,415.5C 195.995,416.417 193.662,416.417 191.5,415.5C 192.514,414.326 193.847,413.66 195.5,413.5C 198.089,412.581 200.089,410.914 201.5,408.5C 203.379,407.095 203.712,405.428 202.5,403.5C 205.588,398.52 204.588,394.52 199.5,391.5C 197.929,392.309 196.262,392.643 194.5,392.5C 191.833,392.5 189.167,392.5 186.5,392.5C 186.167,392.5 185.833,392.5 185.5,392.5C 183.095,391.232 180.428,390.565 177.5,390.5C 173.766,390.323 170.099,390.656 166.5,391.5C 164.517,391.157 163.183,391.824 162.5,393.5C 161.205,394.488 159.872,395.488 158.5,396.5C 156.821,396.715 155.821,396.048 155.5,394.5C 156.906,394.027 157.573,393.027 157.5,391.5C 159.2,389.79 160.533,387.79 161.5,385.5C 160.264,384.643 158.931,383.977 157.5,383.5C 154.464,385.552 151.464,387.552 148.5,389.5C 147.761,389.631 147.094,389.464 146.5,389C 147.252,388.329 147.586,387.496 147.5,386.5C 149.458,383.208 151.791,380.208 154.5,377.5C 156.394,376.952 158.06,375.952 159.5,374.5C 160.687,375.653 161.687,375.653 162.5,374.5C 163.512,373.128 164.512,371.795 165.5,370.5C 168.167,369.167 170.833,369.167 173.5,370.5C 178.117,374.825 183.45,376.825 189.5,376.5C 191.698,376.88 193.365,376.213 194.5,374.5C 195.6,373.442 196.934,372.608 198.5,372C 202.5,371.667 206.5,371.333 210.5,371C 211.044,370.283 211.711,369.783 212.5,369.5C 214.262,368.738 215.262,367.404 215.5,365.5C 215.66,363.847 216.326,362.514 217.5,361.5C 218.222,361.082 218.722,360.416 219,359.5C 219.497,356.854 219.664,354.187 219.5,351.5C 219.511,349.983 220.177,348.816 221.5,348C 220.429,347.148 219.429,346.315 218.5,345.5C 218.027,344.094 217.027,343.427 215.5,343.5C 215.167,343.5 214.833,343.5 214.5,343.5C 212.898,341.926 210.898,341.259 208.5,341.5C 208.167,341.5 207.833,341.5 207.5,341.5C 207.027,340.094 206.027,339.427 204.5,339.5C 198.07,334.575 192.07,329.075 186.5,323C 183.862,320.892 181.528,321.059 179.5,323.5C 181.452,332.111 186.119,338.778 193.5,343.5C 193.811,344.478 194.478,345.145 195.5,345.5C 195.973,349.787 196.973,353.787 198.5,357.5C 199.308,359.22 200.308,360.887 201.5,362.5C 201.167,363.167 200.833,363.833 200.5,364.5C 198.073,366.558 195.407,368.391 192.5,370C 190.934,370.765 189.601,370.598 188.5,369.5C 189.11,368.609 189.443,367.609 189.5,366.5C 189.527,362.227 187.861,358.893 184.5,356.5C 180.519,357.021 176.519,357.354 172.5,357.5C 169.37,357.3 166.37,356.634 163.5,355.5C 163.389,354.883 163.056,354.383 162.5,354C 159.304,353.195 156.304,353.362 153.5,354.5C 149.974,355.993 146.641,357.993 143.5,360.5C 142.503,360.53 141.836,360.03 141.5,359C 141.989,357.862 142.322,356.695 142.5,355.5C 143.833,353.5 145.5,351.833 147.5,350.5C 148.404,349.791 148.737,348.791 148.5,347.5C 147.5,347.5 146.5,347.5 145.5,347.5C 144.504,347.586 143.671,347.252 143,346.5C 140.371,348.888 137.538,350.888 134.5,352.5C 133.167,352.5 132.5,351.833 132.5,350.5C 134.587,349.415 135.92,347.749 136.5,345.5C 136.833,344.5 137.5,343.833 138.5,343.5C 139.906,343.027 140.573,342.027 140.5,340.5C 142.027,340.573 143.027,339.906 143.5,338.5C 144.833,338.167 146.167,337.833 147.5,337.5C 149.795,336.525 151.795,335.192 153.5,333.5C 155.167,333.5 156.833,333.5 158.5,333.5C 160.525,335.196 162.525,336.863 164.5,338.5C 164.611,339.117 164.944,339.617 165.5,340C 167.81,340.497 170.143,340.663 172.5,340.5C 173.5,340.5 174.5,340.5 175.5,340.5C 175.5,340.833 175.5,341.167 175.5,341.5C 176.568,342.434 177.901,342.768 179.5,342.5C 178.313,338.155 175.813,335.488 172,334.5C 171.517,333.552 171.351,332.552 171.5,331.5C 170.5,331.5 169.5,331.5 168.5,331.5C 166.833,330.5 165.5,329.167 164.5,327.5C 163.5,324.5 161.5,322.5 158.5,321.5C 156.5,320.167 154.833,318.5 153.5,316.5C 153.759,314.011 152.759,312.344 150.5,311.5C 149.372,307.196 148.372,302.862 147.5,298.5C 147.328,297.508 147.662,296.842 148.5,296.5C 150.262,295.738 151.262,294.404 151.5,292.5C 153.027,292.573 154.027,291.906 154.5,290.5C 156.027,290.573 157.027,289.906 157.5,288.5C 157.833,288.5 158.167,288.5 158.5,288.5C 162.548,288.16 166.548,287.494 170.5,286.5C 170.376,285.893 170.043,285.56 169.5,285.5C 162.63,275.422 157.63,264.422 154.5,252.5C 153.806,247.195 153.472,241.862 153.5,236.5C 153.992,234.181 154.992,232.181 156.5,230.5C 157.906,230.027 158.573,229.027 158.5,227.5C 158.328,226.508 158.662,225.842 159.5,225.5C 160.906,225.027 161.573,224.027 161.5,222.5C 162.906,222.027 163.573,221.027 163.5,219.5C 163.328,218.508 163.662,217.842 164.5,217.5C 165.906,217.027 166.573,216.027 166.5,214.5C 167.906,214.027 168.573,213.027 168.5,211.5C 168.66,209.847 169.326,208.514 170.5,207.5C 171.906,207.027 172.573,206.027 172.5,204.5C 174.557,200.882 176.223,197.048 177.5,193C 176.826,189.82 175.492,186.986 173.5,184.5C 173.027,183.094 172.027,182.427 170.5,182.5C 167.637,180.555 164.637,180.221 161.5,181.5C 161.665,184.518 161.498,187.518 161,190.5C 155.052,198.734 149.885,207.401 145.5,216.5C 144.262,218.214 143.595,220.214 143.5,222.5C 143.658,229.788 144.658,236.955 146.5,244C 146.333,245.5 146.167,247 146,248.5C 145.31,249.738 144.81,249.738 144.5,248.5C 145.01,245.612 144.344,243.279 142.5,241.5C 141.341,239.623 139.674,239.123 137.5,240C 135.044,242.408 133.211,245.241 132,248.5C 131.501,253.823 131.334,259.156 131.5,264.5C 131.737,265.791 131.404,266.791 130.5,267.5C 127.1,262.694 124.767,257.36 123.5,251.5C 121.898,249.926 119.898,249.259 117.5,249.5C 115.973,249.573 114.973,248.906 114.5,247.5C 114.366,245.708 114.699,244.042 115.5,242.5C 117.123,241.221 118.79,239.887 120.5,238.5C 121.608,235.941 122.941,233.608 124.5,231.5C 126.074,229.898 126.741,227.898 126.5,225.5C 127.458,223.698 128.125,221.698 128.5,219.5C 129.608,215.308 130.608,210.975 131.5,206.5C 132.906,206.027 133.573,205.027 133.5,203.5C 133.328,202.508 133.662,201.842 134.5,201.5C 135.117,201.389 135.617,201.056 136,200.5C 136.739,197.454 137.572,194.454 138.5,191.5C 140.294,189.203 142.294,187.037 144.5,185C 144,184.5 143.5,184 143,183.5C 138.972,185.006 134.806,186.006 130.5,186.5C 129.209,187.542 129.209,188.708 130.5,190C 129.264,191.085 127.931,191.918 126.5,192.5C 122.638,193.428 118.971,194.928 115.5,197C 112.917,200.068 110.584,203.235 108.5,206.5C 107.094,206.973 106.427,207.973 106.5,209.5C 105.094,209.973 104.427,210.973 104.5,212.5C 101.482,212.335 98.4816,212.502 95.5,213C 94.5842,213.278 93.9175,213.778 93.5,214.5C 91.192,215.714 88.8587,215.714 86.5,214.5C 85.1726,210.47 85.1726,206.47 86.5,202.5C 88.0532,200.615 90.0532,199.615 92.5,199.5C 92.5,198.167 92.5,196.833 92.5,195.5C 91.3433,190.925 93.0099,188.258 97.5,187.5C 98.5207,186.099 99.5207,184.765 100.5,183.5C 102.914,182.089 104.581,180.089 105.5,177.5C 107.749,176.92 109.415,175.587 110.5,173.5C 112.027,173.573 113.027,172.906 113.5,171.5C 116.833,170.167 119.167,167.833 120.5,164.5C 121.514,162.426 122.514,160.426 123.5,158.5C 125.306,157.976 126.972,157.309 128.5,156.5C 127.996,152.519 129.329,149.519 132.5,147.5C 133.609,147.557 134.609,147.89 135.5,148.5C 135.958,151.309 137.291,151.976 139.5,150.5C 139.5,149.833 139.833,149.5 140.5,149.5C 141.906,149.027 142.573,148.027 142.5,146.5C 145.97,143.564 147.97,144.564 148.5,149.5C 150.953,150.645 153.287,150.312 155.5,148.5C 168.014,144.847 180.014,146.18 191.5,152.5C 192.035,154.446 193.368,155.446 195.5,155.5C 196.167,155.5 196.5,155.833 196.5,156.5C 196.973,157.906 197.973,158.573 199.5,158.5C 199.738,160.404 200.738,161.738 202.5,162.5C 204.262,163.262 205.262,164.596 205.5,166.5C 205.427,168.027 206.094,169.027 207.5,169.5C 216.799,188.135 216.133,206.468 205.5,224.5C 205.667,224.833 205.833,225.167 206,225.5C 210.143,222.181 214.643,219.514 219.5,217.5C 221.027,217.573 222.027,216.906 222.5,215.5C 226.693,212.078 231.026,208.744 235.5,205.5C 237.795,204.864 239.461,203.531 240.5,201.5C 242.697,197.762 245.364,194.429 248.5,191.5C 250.587,190.415 251.92,188.749 252.5,186.5C 252.328,185.508 252.662,184.842 253.5,184.5C 254.906,184.027 255.573,183.027 255.5,181.5C 255.328,180.508 255.662,179.842 256.5,179.5C 257.906,179.027 258.573,178.027 258.5,176.5C 266.983,159.729 271.983,142.063 273.5,123.5C 274.976,121.291 274.309,119.958 271.5,119.5C 270.5,119.167 269.833,118.5 269.5,117.5C 269.833,114.833 270.167,112.167 270.5,109.5C 271.391,107.391 272.558,105.391 274,103.5C 274.944,104.263 275.444,105.263 275.5,106.5C 274.604,108.801 274.438,111.134 275,113.5C 275.77,114.598 276.603,114.598 277.5,113.5C 278.417,110.679 280.084,108.346 282.5,106.5C 283.552,106.351 284.552,106.517 285.5,107C 284.663,108.011 284.33,109.178 284.5,110.5C 283.833,111.5 283.167,112.5 282.5,113.5C 283.053,115.552 284.053,115.885 285.5,114.5C 288.125,115.924 290.458,115.591 292.5,113.5C 293.93,112.463 295.597,111.796 297.5,111.5C 299.698,111.88 301.365,111.213 302.5,109.5C 303.209,108.596 304.209,108.263 305.5,108.5C 308.598,108.244 311.598,107.578 314.5,106.5C 315.5,106.5 316.5,106.5 317.5,106.5C 319.898,106.741 321.898,106.074 323.5,104.5C 324.93,103.463 326.597,102.796 328.5,102.5C 331.716,102.655 334.383,101.655 336.5,99.5C 339.649,99.5848 342.316,98.5848 344.5,96.5C 345.391,95.8902 346.391,95.5569 347.5,95.5C 350.716,95.6545 353.383,94.6545 355.5,92.5C 357.698,92.8799 359.365,92.2132 360.5,90.5C 362.302,89.5418 364.302,88.8751 366.5,88.5C 369.716,88.6545 372.383,87.6545 374.5,85.5C 376.898,85.7406 378.898,85.0739 380.5,83.5C 382.89,81.9802 385.557,80.9802 388.5,80.5C 392.162,80.2766 395.495,79.2766 398.5,77.5C 398.842,76.6618 399.508,76.3284 400.5,76.5C 402.698,76.8799 404.365,76.2132 405.5,74.5C 407.421,73.6373 409.421,72.9707 411.5,72.5C 414.716,72.6545 417.383,71.6545 419.5,69.5 Z M 106.5,186.5 C 106.833,186.5 107.167,186.5 107.5,186.5C 107.5,187.167 107.5,187.833 107.5,188.5C 106.833,189.167 106.167,189.833 105.5,190.5C 105.433,189.041 105.766,187.708 106.5,186.5 Z"/></g>
<g><path style="opacity:0.4" fill="#b1b1b1" d="M 156.5,69.5 C 155.486,70.6737 154.153,71.3404 152.5,71.5C 153.287,69.8958 154.62,69.2291 156.5,69.5 Z"/></g>
<g><path style="opacity:0.145" fill="#b4b4b4" d="M 209.5,69.5 C 205.687,70.7867 201.687,71.7867 197.5,72.5C 201.076,70.2724 205.076,69.2724 209.5,69.5 Z"/></g>
<g><path style="opacity:0.89" fill="#585858" d="M 419.5,69.5 C 417.383,71.6545 414.716,72.6545 411.5,72.5C 413.936,71.129 416.603,70.129 419.5,69.5 Z"/></g>
<g><path style="opacity:0.804" fill="#8d8d8d" d="M 286.5,72.5 C 291.289,72.6538 295.622,73.9871 299.5,76.5C 294.951,75.5368 290.617,74.2035 286.5,72.5 Z"/></g>
<g><path style="opacity:0.824" fill="#6d6d6d" d="M 405.5,74.5 C 404.365,76.2132 402.698,76.8799 400.5,76.5C 401.93,75.4625 403.597,74.7959 405.5,74.5 Z"/></g>
<g><path style="opacity:0.565" fill="#929292" d="M 144.5,75.5 C 144.027,76.9063 143.027,77.573 141.5,77.5C 141.973,76.0937 142.973,75.427 144.5,75.5 Z"/></g>
<g><path style="opacity:0.808" fill="#787878" d="M 305.5,78.5 C 307.698,78.1201 309.365,78.7868 310.5,80.5C 308.597,80.2041 306.93,79.5375 305.5,78.5 Z"/></g>
<g><path style="opacity:0.133" fill="#c1c1c1" d="M 341.5,77.5 C 343.027,77.427 344.027,78.0937 344.5,79.5C 342.973,79.573 341.973,78.9063 341.5,77.5 Z"/></g>
<g><path style="opacity:0.761" fill="#6a6a6a" d="M 398.5,77.5 C 395.495,79.2766 392.162,80.2766 388.5,80.5C 391.452,78.5902 394.786,77.5902 398.5,77.5 Z"/></g>
<g><path style="opacity:0.188" fill="#b8b8b8" d="M 179.5,77.5 C 177.208,79.2671 174.542,80.2671 171.5,80.5C 173.792,78.7329 176.458,77.7329 179.5,77.5 Z"/></g>
<g><path style="opacity:0.494" fill="#a5a5a5" d="M 137.5,79.5 C 137.027,80.9063 136.027,81.573 134.5,81.5C 134.973,80.0937 135.973,79.427 137.5,79.5 Z"/></g>
<g><path style="opacity:0.651" fill="#7d7d7d" d="M 219.5,82.5 C 219.565,82.0618 219.399,81.7284 219,81.5C 217.629,83.0414 216.129,84.3747 214.5,85.5C 215.882,82.6057 217.882,80.1057 220.5,78C 221.332,77.3123 221.998,77.479 222.5,78.5C 221.965,80.261 220.965,81.5943 219.5,82.5 Z"/></g>
<g><path style="opacity:0.145" fill="#b9b9b9" d="M 169.5,81.5 C 168.22,82.9313 166.553,83.5979 164.5,83.5C 165.78,82.0687 167.447,81.4021 169.5,81.5 Z"/></g>
<g><path style="opacity:0.999" fill="#131313" d="M 219.5,82.5 C 217.409,88.3378 215.076,94.0045 212.5,99.5C 210.926,101.102 210.259,103.102 210.5,105.5C 208.96,107.838 208.294,110.505 208.5,113.5C 208.5,113.833 208.5,114.167 208.5,114.5C 207.025,119.757 206.358,125.257 206.5,131C 206.501,134.683 206.835,138.183 207.5,141.5C 207.171,144.228 207.837,146.562 209.5,148.5C 211.07,151.314 212.403,154.314 213.5,157.5C 213.229,159.38 213.896,160.713 215.5,161.5C 216.338,161.842 216.672,162.508 216.5,163.5C 216.427,165.027 217.094,166.027 218.5,166.5C 220.262,167.262 221.262,168.596 221.5,170.5C 221.833,171.5 222.5,172.167 223.5,172.5C 229.32,174.308 235.32,174.808 241.5,174C 240.944,174.383 240.611,174.883 240.5,175.5C 238.525,177.137 236.525,178.804 234.5,180.5C 232.461,181.911 231.461,183.911 231.5,186.5C 231.781,191.565 231.448,196.565 230.5,201.5C 228.565,202.563 226.899,203.897 225.5,205.5C 223.79,204.113 222.123,202.779 220.5,201.5C 220.029,194.656 219.029,187.99 217.5,181.5C 214.978,174.79 211.644,168.457 207.5,162.5C 207.573,160.973 206.906,159.973 205.5,159.5C 204.5,159.167 203.833,158.5 203.5,157.5C 202.089,155.086 200.089,153.419 197.5,152.5C 197.027,151.094 196.027,150.427 194.5,150.5C 194.027,149.094 193.027,148.427 191.5,148.5C 188.256,147.537 185.256,146.204 182.5,144.5C 182.068,143.29 181.401,142.29 180.5,141.5C 179.596,140.791 179.263,139.791 179.5,138.5C 179.34,136.847 178.674,135.514 177.5,134.5C 175.368,129.847 172.202,125.847 168,122.5C 167.255,118.552 167.755,114.885 169.5,111.5C 170.167,112.833 170.833,114.167 171.5,115.5C 171.281,116.675 171.614,117.675 172.5,118.5C 173.298,118.043 173.631,117.376 173.5,116.5C 174.167,117.833 174.833,119.167 175.5,120.5C 176.458,121.962 177.624,123.295 179,124.5C 180.719,121.712 182.885,119.379 185.5,117.5C 187.262,116.738 188.262,115.404 188.5,113.5C 190.587,112.415 191.92,110.749 192.5,108.5C 196.167,104.167 200.167,100.167 204.5,96.5C 206.587,95.4154 207.92,93.7488 208.5,91.5C 210.215,89.1182 212.215,87.1182 214.5,85.5C 216.129,84.3747 217.629,83.0414 219,81.5C 219.399,81.7284 219.565,82.0618 219.5,82.5 Z"/></g>
<g><path style="opacity:0.565" fill="#959595" d="M 131.5,83.5 C 131.027,84.9063 130.027,85.573 128.5,85.5C 128.973,84.0937 129.973,83.427 131.5,83.5 Z"/></g>
<g><path style="opacity:0.722" fill="#777777" d="M 380.5,83.5 C 378.898,85.0739 376.898,85.7406 374.5,85.5C 376.214,84.2616 378.214,83.595 380.5,83.5 Z"/></g>
<g><path style="opacity:0.51" fill="#8a8a8a" d="M 128.5,85.5 C 127.738,87.2624 126.404,88.2624 124.5,88.5C 125.262,86.7376 126.596,85.7376 128.5,85.5 Z"/></g>
<g><path style="opacity:0.122" fill="#c7c7c7" d="M 160.5,85.5 C 159.713,87.1042 158.38,87.7709 156.5,87.5C 157.514,86.3263 158.847,85.6596 160.5,85.5 Z"/></g>
<g><path style="opacity:0.58" fill="#868686" d="M 354.5,85.5 C 357.167,86.5 357.167,87.5 354.5,88.5C 354.5,87.5 354.5,86.5 354.5,85.5 Z"/></g>
<g><path style="opacity:0.22" fill="#a7a7a7" d="M 324.5,86.5 C 326.027,86.427 327.027,87.0937 327.5,88.5C 325.973,88.573 324.973,87.9063 324.5,86.5 Z"/></g>
<g><path style="opacity:0.851" fill="#5c5c5c" d="M 374.5,85.5 C 372.383,87.6545 369.716,88.6545 366.5,88.5C 368.936,87.129 371.603,86.129 374.5,85.5 Z"/></g>
<g><path style="opacity:0.631" fill="#878787" d="M 124.5,88.5 C 124.027,89.9063 123.027,90.573 121.5,90.5C 121.973,89.0937 122.973,88.427 124.5,88.5 Z"/></g>
<g><path style="opacity:0.796" fill="#747474" d="M 360.5,90.5 C 359.365,92.2132 357.698,92.8799 355.5,92.5C 356.93,91.4625 358.597,90.7959 360.5,90.5 Z"/></g>
<g><path style="opacity:0.741" fill="#7e7e7e" d="M 121.5,90.5 C 120.415,92.5869 118.749,93.9202 116.5,94.5C 117.585,92.4131 119.251,91.0798 121.5,90.5 Z"/></g>
<g><path style="opacity:0.267" fill="#afafaf" d="M 343.5,92.5 C 341.287,94.3117 338.953,94.6451 336.5,93.5C 338.806,93.0074 341.139,92.6741 343.5,92.5 Z"/></g>
<g><path style="opacity:0.529" fill="#8b8b8b" d="M 208.5,91.5 C 207.92,93.7488 206.587,95.4154 204.5,96.5C 205.08,94.2512 206.413,92.5846 208.5,91.5 Z"/></g>
<g><path style="opacity:0.886" fill="#5b5b5b" d="M 355.5,92.5 C 353.383,94.6545 350.716,95.6545 347.5,95.5C 349.89,93.9802 352.557,92.9802 355.5,92.5 Z"/></g>
<g><path style="opacity:0.729" fill="#757575" d="M 116.5,94.5 C 115.089,96.914 113.089,98.5806 110.5,99.5C 111.911,97.086 113.911,95.4194 116.5,94.5 Z"/></g>
<g><path style="opacity:0.749" fill="#8a8a8a" d="M 344.5,96.5 C 342.316,98.5848 339.649,99.5848 336.5,99.5C 338.792,97.7329 341.458,96.7329 344.5,96.5 Z"/></g>
<g><path style="opacity:0.8" fill="#6d6d6d" d="M 336.5,99.5 C 334.383,101.655 331.716,102.655 328.5,102.5C 330.936,101.129 333.603,100.129 336.5,99.5 Z"/></g>
<g><path style="opacity:0.784" fill="#7a7a7a" d="M 375.5,102.5 C 373.784,102.629 372.117,102.962 370.5,103.5C 371.877,100.274 373.543,99.9409 375.5,102.5 Z"/></g>
<g><path style="opacity:0.4" fill="#9c9c9c" d="M 212.5,99.5 C 212.405,101.786 211.738,103.786 210.5,105.5C 210.259,103.102 210.926,101.102 212.5,99.5 Z"/></g>
<g><path style="opacity:0.999" fill="#0d0d0d" d="M 375.5,102.5 C 376.167,102.5 376.5,102.833 376.5,103.5C 376.833,104.5 377.5,105.167 378.5,105.5C 380.19,105.856 381.19,106.856 381.5,108.5C 381.833,109.5 382.5,110.167 383.5,110.5C 383.833,111.5 384.5,112.167 385.5,112.5C 387.167,113.5 388.5,114.833 389.5,116.5C 390.419,119.089 392.086,121.089 394.5,122.5C 395.419,125.089 397.086,127.089 399.5,128.5C 399.738,130.404 400.738,131.738 402.5,132.5C 402.738,134.404 403.738,135.738 405.5,136.5C 405.427,138.027 406.094,139.027 407.5,139.5C 408.338,139.842 408.672,140.508 408.5,141.5C 408.738,143.404 409.738,144.738 411.5,145.5C 412.338,145.842 412.672,146.508 412.5,147.5C 412.427,149.027 413.094,150.027 414.5,150.5C 415.674,151.514 416.34,152.847 416.5,154.5C 416.427,156.027 417.094,157.027 418.5,157.5C 420.105,160.378 421.439,163.378 422.5,166.5C 420.721,168.344 418.388,169.01 415.5,168.5C 412.788,168.263 410.288,168.263 408,168.5C 403.744,166.015 400.911,162.348 399.5,157.5C 399.715,155.821 399.048,154.821 397.5,154.5C 396.4,153.395 395.733,152.062 395.5,150.5C 395.446,148.368 394.446,147.035 392.5,146.5C 392.573,144.973 391.906,143.973 390.5,143.5C 390.446,141.368 389.446,140.035 387.5,139.5C 387.5,138.167 386.833,137.5 385.5,137.5C 383.748,135.754 382.415,133.754 381.5,131.5C 381.167,130.5 380.5,129.833 379.5,129.5C 378.167,128.833 377.167,127.833 376.5,126.5C 375.833,123.833 374.167,122.167 371.5,121.5C 371.5,121.167 371.5,120.833 371.5,120.5C 369.1,117.097 366.1,114.43 362.5,112.5C 362.733,110.938 363.4,109.605 364.5,108.5C 364.5,107.833 364.833,107.5 365.5,107.5C 367.749,106.92 369.415,105.587 370.5,103.5C 372.117,102.962 373.784,102.629 375.5,102.5 Z"/></g>
<g><path style="opacity:0.02" fill="#cdcdcd" d="M 376.5,103.5 C 377.833,103.5 378.5,104.167 378.5,105.5C 377.5,105.167 376.833,104.5 376.5,103.5 Z"/></g>
<g><path style="opacity:0.694" fill="#878787" d="M 110.5,99.5 C 107.437,103.566 103.771,106.899 99.5,109.5C 102.537,105.463 106.203,102.129 110.5,99.5 Z"/></g>
<g><path style="opacity:0.675" fill="#717171" d="M 370.5,103.5 C 369.415,105.587 367.749,106.92 365.5,107.5C 366.585,105.413 368.251,104.08 370.5,103.5 Z"/></g>
<g><path style="opacity:0.847" fill="#626262" d="M 284.5,110.5 C 284.33,109.178 284.663,108.011 285.5,107C 284.552,106.517 283.552,106.351 282.5,106.5C 283.992,104.078 285.992,103.412 288.5,104.5C 287.143,106.565 285.81,108.565 284.5,110.5 Z"/></g>
<g><path style="opacity:0.702" fill="#8a8a8a" d="M 323.5,104.5 C 321.898,106.074 319.898,106.741 317.5,106.5C 319.214,105.262 321.214,104.595 323.5,104.5 Z"/></g>
<g><path style="opacity:0.769" fill="#6b6b6b" d="M 314.5,106.5 C 311.598,107.578 308.598,108.244 305.5,108.5C 307.78,107.233 310.28,106.233 313,105.5C 313.765,105.57 314.265,105.903 314.5,106.5 Z"/></g>
<g><path style="opacity:0.541" fill="#878787" d="M 282.5,106.5 C 280.084,108.346 278.417,110.679 277.5,113.5C 277.005,109.54 278.672,107.207 282.5,106.5 Z"/></g>
<g><path style="opacity:0.024" fill="#bebebe" d="M 381.5,108.5 C 382.833,108.5 383.5,109.167 383.5,110.5C 382.5,110.167 381.833,109.5 381.5,108.5 Z"/></g>
<g><path style="opacity:0.698" fill="#8b8b8b" d="M 192.5,108.5 C 191.92,110.749 190.587,112.415 188.5,113.5C 189.08,111.251 190.413,109.585 192.5,108.5 Z"/></g>
<g><path style="opacity:0.827" fill="#757575" d="M 302.5,109.5 C 301.365,111.213 299.698,111.88 297.5,111.5C 298.93,110.463 300.597,109.796 302.5,109.5 Z"/></g>
<g><path style="opacity:0.431" fill="#8c8c8c" d="M 364.5,108.5 C 363.4,109.605 362.733,110.938 362.5,112.5C 361.024,110.291 361.691,108.958 364.5,108.5 Z"/></g>
<g><path style="opacity:0.008" fill="#c4c4c4" d="M 383.5,110.5 C 384.833,110.5 385.5,111.167 385.5,112.5C 384.5,112.167 383.833,111.5 383.5,110.5 Z"/></g>
<g><path style="opacity:0.352" fill="#8c8c8c" d="M 171.5,115.5 C 170.833,114.167 170.167,112.833 169.5,111.5C 169.281,110.325 169.614,109.325 170.5,108.5C 171.474,110.743 171.808,113.076 171.5,115.5 Z"/></g>
<g><path style="opacity:0.18" fill="#b3b3b3" d="M 210.5,105.5 C 210.435,108.428 209.768,111.095 208.5,113.5C 208.294,110.505 208.96,107.838 210.5,105.5 Z"/></g>
<g><path style="opacity:0.78" fill="#909090" d="M 362.5,112.5 C 366.1,114.43 369.1,117.097 371.5,120.5C 367.9,118.57 364.9,115.903 362.5,112.5 Z"/></g>
<g><path style="opacity:0.596" fill="#616161" d="M 270.5,109.5 C 270.167,112.167 269.833,114.833 269.5,117.5C 268.254,114.707 268.587,112.04 270.5,109.5 Z"/></g>
<g><path style="opacity:0.753" fill="#7b7b7b" d="M 188.5,113.5 C 188.262,115.404 187.262,116.738 185.5,117.5C 185.738,115.596 186.738,114.262 188.5,113.5 Z"/></g>
<g><path style="opacity:0.451" fill="#747474" d="M 282.5,113.5 C 283.391,114.11 284.391,114.443 285.5,114.5C 284.053,115.885 283.053,115.552 282.5,113.5 Z"/></g>
<g><path style="opacity:0.718" fill="#878787" d="M 285.5,114.5 C 287.635,114.695 289.968,114.361 292.5,113.5C 290.458,115.591 288.125,115.924 285.5,114.5 Z"/></g>
<g><path style="opacity:0.167" fill="#9d9d9d" d="M 175.5,120.5 C 174.833,119.167 174.167,117.833 173.5,116.5C 173.351,115.448 173.517,114.448 174,113.5C 175.352,115.594 175.852,117.927 175.5,120.5 Z"/></g>
<g><path style="opacity:0.173" fill="#bfbfbf" d="M 171.5,115.5 C 172.167,115.833 172.833,116.167 173.5,116.5C 173.631,117.376 173.298,118.043 172.5,118.5C 171.614,117.675 171.281,116.675 171.5,115.5 Z"/></g>
<g><path style="opacity:0.741" fill="#909090" d="M 389.5,116.5 C 391.914,117.911 393.581,119.911 394.5,122.5C 392.086,121.089 390.419,119.089 389.5,116.5 Z"/></g>
<g><path style="opacity:0.365" fill="#9a9a9a" d="M 99.5,109.5 C 96.8991,113.771 93.5658,117.437 89.5,120.5C 92.1009,116.229 95.4342,112.563 99.5,109.5 Z"/></g>
<g><path style="opacity:0.882" fill="#6e6e6e" d="M 271.5,119.5 C 274.309,119.958 274.976,121.291 273.5,123.5C 273.267,121.938 272.6,120.605 271.5,119.5 Z"/></g>
<g><path style="opacity:0.008" fill="#d6d6d6" d="M 343.5,119.5 C 343.5,120.833 342.833,121.5 341.5,121.5C 341.833,120.5 342.5,119.833 343.5,119.5 Z"/></g>
<g><path style="opacity:0.761" fill="#828282" d="M 89.5,120.5 C 88.9202,122.749 87.5869,124.415 85.5,125.5C 86.0798,123.251 87.4131,121.585 89.5,120.5 Z"/></g>
<g><path style="opacity:0.49" fill="#a5a5a5" d="M 371.5,121.5 C 374.167,122.167 375.833,123.833 376.5,126.5C 374.5,125.167 372.833,123.5 371.5,121.5 Z"/></g>
<g><path style="opacity:0.008" fill="#d4d4d4" d="M 341.5,121.5 C 341.573,123.027 340.906,124.027 339.5,124.5C 339.427,122.973 340.094,121.973 341.5,121.5 Z"/></g>
<g><path style="opacity:0.176" fill="#cfcfcf" d="M 85.5,125.5 C 85.1667,126.5 84.5,127.167 83.5,127.5C 83.5,126.167 84.1667,125.5 85.5,125.5 Z"/></g>
<g><path style="opacity:0.275" fill="#9d9d9d" d="M 394.5,122.5 C 396.914,123.911 398.581,125.911 399.5,128.5C 397.086,127.089 395.419,125.089 394.5,122.5 Z"/></g>
<g><path style="opacity:0.02" fill="#c4c4c4" d="M 104.5,127.5 C 104.573,129.027 103.906,130.027 102.5,130.5C 102.427,128.973 103.094,127.973 104.5,127.5 Z"/></g>
<g><path style="opacity:0.663" fill="#999999" d="M 399.5,128.5 C 401.262,129.262 402.262,130.596 402.5,132.5C 400.738,131.738 399.738,130.404 399.5,128.5 Z"/></g>
<g><path style="opacity:0.004" fill="#cdcdcd" d="M 379.5,129.5 C 380.5,129.833 381.167,130.5 381.5,131.5C 380.167,131.5 379.5,130.833 379.5,129.5 Z"/></g>
<g><path style="opacity:0.059" fill="#c3c3c3" d="M 208.5,114.5 C 207.734,123.479 207.401,132.479 207.5,141.5C 206.835,138.183 206.501,134.683 206.5,131C 206.358,125.257 207.025,119.757 208.5,114.5 Z"/></g>
<g><path style="opacity:0.255" fill="#949494" d="M 82.5,129.5 C 81.9202,131.749 80.5869,133.415 78.5,134.5C 79.0798,132.251 80.4131,130.585 82.5,129.5 Z"/></g>
<g><path style="opacity:0.4" fill="#a6a6a6" d="M 402.5,132.5 C 404.262,133.262 405.262,134.596 405.5,136.5C 403.738,135.738 402.738,134.404 402.5,132.5 Z"/></g>
<g><path style="opacity:0.392" fill="#aaaaaa" d="M 78.5,134.5 C 78.2624,136.404 77.2624,137.738 75.5,138.5C 75.7376,136.596 76.7376,135.262 78.5,134.5 Z"/></g>
<g><path style="opacity:0.259" fill="#9a9a9a" d="M 177.5,134.5 C 178.674,135.514 179.34,136.847 179.5,138.5C 177.896,137.713 177.229,136.38 177.5,134.5 Z"/></g>
<g><path style="opacity:0.565" fill="#a0a0a0" d="M 385.5,137.5 C 386.833,137.5 387.5,138.167 387.5,139.5C 386.5,139.167 385.833,138.5 385.5,137.5 Z"/></g>
<g><path style="opacity:0.22" fill="#bababa" d="M 405.5,136.5 C 406.906,136.973 407.573,137.973 407.5,139.5C 406.094,139.027 405.427,138.027 405.5,136.5 Z"/></g>
<g><path style="opacity:0.306" fill="#868686" d="M 335.5,133.5 C 334.886,137.135 334.552,140.802 334.5,144.5C 333.098,140.71 333.431,137.044 335.5,133.5 Z"/></g>
<g><path style="opacity:0.18" fill="#c6c6c6" d="M 75.5,138.5 C 75.573,140.027 74.9063,141.027 73.5,141.5C 73.427,139.973 74.0937,138.973 75.5,138.5 Z"/></g>
<g><path style="opacity:0.529" fill="#888888" d="M 387.5,139.5 C 389.446,140.035 390.446,141.368 390.5,143.5C 389.026,142.564 388.026,141.23 387.5,139.5 Z"/></g>
<g><path style="opacity:0.275" fill="#8e8e8e" d="M 180.5,141.5 C 181.401,142.29 182.068,143.29 182.5,144.5C 180.952,144.179 180.285,143.179 180.5,141.5 Z"/></g>
<g><path style="opacity:0.161" fill="#cccccc" d="M 73.5,141.5 C 73.573,143.027 72.9063,144.027 71.5,144.5C 71.427,142.973 72.0937,141.973 73.5,141.5 Z"/></g>
<g><path style="opacity:0.443" fill="#9e9e9e" d="M 408.5,141.5 C 410.262,142.262 411.262,143.596 411.5,145.5C 409.738,144.738 408.738,143.404 408.5,141.5 Z"/></g>
<g><path style="opacity:0.016" fill="#cccccc" d="M 390.5,143.5 C 391.906,143.973 392.573,144.973 392.5,146.5C 391.094,146.027 390.427,145.027 390.5,143.5 Z"/></g>
<g><path style="opacity:0.62" fill="#9f9f9f" d="M 207.5,141.5 C 208.612,143.599 209.279,145.933 209.5,148.5C 207.837,146.562 207.171,144.228 207.5,141.5 Z"/></g>
<g><path style="opacity:0.22" fill="#adadad" d="M 132.5,147.5 C 133.947,146.115 134.947,146.448 135.5,148.5C 134.609,147.89 133.609,147.557 132.5,147.5 Z"/></g>
<g><path style="opacity:0.882" fill="#777777" d="M 392.5,146.5 C 394.446,147.035 395.446,148.368 395.5,150.5C 394.026,149.564 393.026,148.23 392.5,146.5 Z"/></g>
<g><path style="opacity:0.173" fill="#c4c4c4" d="M 70.5,146.5 C 70.573,148.027 69.9063,149.027 68.5,149.5C 68.427,147.973 69.0937,146.973 70.5,146.5 Z"/></g>
<g><path style="opacity:0.365" fill="#979797" d="M 142.5,146.5 C 142.573,148.027 141.906,149.027 140.5,149.5C 140.427,147.973 141.094,146.973 142.5,146.5 Z"/></g>
<g><path style="opacity:0.929" fill="#505050" d="M 155.5,148.5 C 153.287,150.312 150.953,150.645 148.5,149.5C 150.764,148.781 153.097,148.448 155.5,148.5 Z"/></g>
<g><path style="opacity:0.412" fill="#838383" d="M 191.5,148.5 C 193.027,148.427 194.027,149.094 194.5,150.5C 192.973,150.573 191.973,149.906 191.5,148.5 Z"/></g>
<g><path style="opacity:0.18" fill="#c0c0c0" d="M 412.5,147.5 C 413.906,147.973 414.573,148.973 414.5,150.5C 413.094,150.027 412.427,149.027 412.5,147.5 Z"/></g>
<g><path style="opacity:0.58" fill="#6c6c6c" d="M 135.5,148.5 C 136.605,149.6 137.938,150.267 139.5,150.5C 137.291,151.976 135.958,151.309 135.5,148.5 Z"/></g>
<g><path style="opacity:0.427" fill="#878787" d="M 194.5,150.5 C 196.027,150.427 197.027,151.094 197.5,152.5C 195.973,152.573 194.973,151.906 194.5,150.5 Z"/></g>
<g><path style="opacity:0.784" fill="#8b8b8b" d="M 197.5,152.5 C 200.089,153.419 202.089,155.086 203.5,157.5C 200.911,156.581 198.911,154.914 197.5,152.5 Z"/></g>
<g><path style="opacity:0.91" fill="#727272" d="M 191.5,152.5 C 193.23,153.026 194.564,154.026 195.5,155.5C 193.368,155.446 192.035,154.446 191.5,152.5 Z"/></g>
<g><path style="opacity:0.792" fill="#848484" d="M 397.5,154.5 C 399.048,154.821 399.715,155.821 399.5,157.5C 398.599,156.71 397.932,155.71 397.5,154.5 Z"/></g>
<g><path style="opacity:0.153" fill="#c1c1c1" d="M 67.5,151.5 C 66.9213,154.331 65.588,156.664 63.5,158.5C 64.0787,155.669 65.412,153.336 67.5,151.5 Z"/></g>
<g><path style="opacity:0.239" fill="#8e8e8e" d="M 128.5,156.5 C 126.972,157.309 125.306,157.976 123.5,158.5C 123.281,157.325 123.614,156.325 124.5,155.5C 125.736,156.246 127.07,156.579 128.5,156.5 Z"/></g>
<g><path style="opacity:0.012" fill="#b5b5b5" d="M 196.5,156.5 C 198.027,156.427 199.027,157.094 199.5,158.5C 197.973,158.573 196.973,157.906 196.5,156.5 Z"/></g>
<g><path style="opacity:0.129" fill="#cdcdcd" d="M 416.5,154.5 C 417.906,154.973 418.573,155.973 418.5,157.5C 417.094,157.027 416.427,156.027 416.5,154.5 Z"/></g>
<g><path style="opacity:0.608" fill="#8d8d8d" d="M 199.5,158.5 C 201.262,159.262 202.262,160.596 202.5,162.5C 200.738,161.738 199.738,160.404 199.5,158.5 Z"/></g>
<g><path style="opacity:0.008" fill="#bcbcbc" d="M 205.5,159.5 C 206.906,159.973 207.573,160.973 207.5,162.5C 206.094,162.027 205.427,161.027 205.5,159.5 Z"/></g>
<g><path style="opacity:0.122" fill="#dadada" d="M 213.5,157.5 C 214.674,158.514 215.34,159.847 215.5,161.5C 213.896,160.713 213.229,159.38 213.5,157.5 Z"/></g>
<g><path style="opacity:0.847" fill="#747474" d="M 345.5,159.5 C 346.71,159.932 347.71,160.599 348.5,161.5C 346.821,161.715 345.821,161.048 345.5,159.5 Z"/></g>
<g><path style="opacity:0.184" fill="#b4b4b4" d="M 63.5,159.5 C 63.573,161.027 62.9063,162.027 61.5,162.5C 61.427,160.973 62.0937,159.973 63.5,159.5 Z"/></g>
<g><path style="opacity:0.169" fill="#b9b9b9" d="M 61.5,163.5 C 61.573,165.027 60.9063,166.027 59.5,166.5C 59.427,164.973 60.0937,163.973 61.5,163.5 Z"/></g>
<g><path style="opacity:0.306" fill="#adadad" d="M 216.5,163.5 C 217.906,163.973 218.573,164.973 218.5,166.5C 217.094,166.027 216.427,165.027 216.5,163.5 Z"/></g>
<g><path style="opacity:0.118" fill="#a6a6a6" d="M 367.5,166.5 C 371.79,166.198 375.79,166.864 379.5,168.5C 375.295,168.283 371.295,167.617 367.5,166.5 Z"/></g>
<g><path style="opacity:0.812" fill="#515151" d="M 120.5,164.5 C 119.167,167.833 116.833,170.167 113.5,171.5C 115.5,168.833 117.833,166.5 120.5,164.5 Z"/></g>
<g><path style="opacity:0.439" fill="#7e7e7e" d="M 205.5,166.5 C 206.906,166.973 207.573,167.973 207.5,169.5C 206.094,169.027 205.427,168.027 205.5,166.5 Z"/></g>
<g><path style="opacity:0.471" fill="#9c9c9c" d="M 422.5,166.5 C 423.404,167.209 423.737,168.209 423.5,169.5C 420.615,169.806 417.948,169.473 415.5,168.5C 418.388,169.01 420.721,168.344 422.5,166.5 Z"/></g>
<g><path style="opacity:0.733" fill="#797979" d="M 468.5,169.5 C 468.53,168.503 468.03,167.836 467,167.5C 462.286,169.35 457.453,170.684 452.5,171.5C 458.277,168.568 464.277,166.901 470.5,166.5C 470.058,167.739 469.391,168.739 468.5,169.5 Z"/></g>
<g><path style="opacity:0.012" fill="#b8b8b8" d="M 221.5,170.5 C 222.833,170.5 223.5,171.167 223.5,172.5C 222.5,172.167 221.833,171.5 221.5,170.5 Z"/></g>
<g><path style="opacity:0.702" fill="#6f6f6f" d="M 113.5,171.5 C 113.027,172.906 112.027,173.573 110.5,173.5C 110.973,172.094 111.973,171.427 113.5,171.5 Z"/></g>
<g><path style="opacity:0.482" fill="#8e8e8e" d="M 410.5,171.5 C 414.36,171.808 418.026,172.475 421.5,173.5C 417.511,173.884 413.845,173.217 410.5,171.5 Z"/></g>
<g><path style="opacity:0.486" fill="#898989" d="M 240.5,175.5 C 240.611,174.883 240.944,174.383 241.5,174C 235.32,174.808 229.32,174.308 223.5,172.5C 230.435,174.019 237.268,173.686 244,171.5C 244.5,171.667 245,171.833 245.5,172C 244.211,173.802 242.544,174.969 240.5,175.5 Z"/></g>
<g><path style="opacity:0.702" fill="#939393" d="M 428.5,174.5 C 426.265,174.795 424.265,174.461 422.5,173.5C 422.435,173.062 422.601,172.728 423,172.5C 424.948,173.109 426.782,173.776 428.5,174.5 Z"/></g>
<g><path style="opacity:0.839" fill="#6f6f6f" d="M 446.5,173.5 C 445.365,175.213 443.698,175.88 441.5,175.5C 442.93,174.463 444.597,173.796 446.5,173.5 Z"/></g>
<g><path style="opacity:0.086" fill="#d6d6d6" d="M 56.5,173.5 C 56.5979,175.553 55.9313,177.22 54.5,178.5C 54.4021,176.447 55.0687,174.78 56.5,173.5 Z"/></g>
<g><path style="opacity:0.737" fill="#7b7b7b" d="M 110.5,173.5 C 109.415,175.587 107.749,176.92 105.5,177.5C 106.585,175.413 108.251,174.08 110.5,173.5 Z"/></g>
<g><path style="opacity:0.082" fill="#ababab" d="M 422.5,176.5 C 420.582,177.868 418.415,178.868 416,179.5C 415.005,178.934 414.172,178.267 413.5,177.5C 416.545,177.492 419.545,177.159 422.5,176.5 Z"/></g>
<g><path style="opacity:0.341" fill="#8f8f8f" d="M 258.5,176.5 C 258.573,178.027 257.906,179.027 256.5,179.5C 256.427,177.973 257.094,176.973 258.5,176.5 Z"/></g>
<g><path style="opacity:0.608" fill="#919191" d="M 105.5,177.5 C 104.581,180.089 102.914,182.089 100.5,183.5C 101.419,180.911 103.086,178.911 105.5,177.5 Z"/></g>
<g><path style="opacity:0.212" fill="#ababab" d="M 234.5,180.5 C 234.008,182.819 233.008,184.819 231.5,186.5C 231.461,183.911 232.461,181.911 234.5,180.5 Z"/></g>
<g><path style="opacity:0.016" fill="#dbdbdb" d="M 53.5,181.5 C 53.5979,183.553 52.9313,185.22 51.5,186.5C 51.4021,184.447 52.0687,182.78 53.5,181.5 Z"/></g>
<g><path style="opacity:0.478" fill="#7b7b7b" d="M 170.5,182.5 C 172.027,182.427 173.027,183.094 173.5,184.5C 171.973,184.573 170.973,183.906 170.5,182.5 Z"/></g>
<g><path style="opacity:0.275" fill="#9b9b9b" d="M 255.5,181.5 C 255.573,183.027 254.906,184.027 253.5,184.5C 253.427,182.973 254.094,181.973 255.5,181.5 Z"/></g>
<g><path style="opacity:0.125" fill="#a9a9a9" d="M 107.5,186.5 C 107.167,186.5 106.833,186.5 106.5,186.5C 107.002,184.915 108.002,184.415 109.5,185C 108.956,185.717 108.289,186.217 107.5,186.5 Z"/></g>
<g><path style="opacity:0.243" fill="#bdbdbd" d="M 69.5,185.5 C 69.5979,187.553 68.9313,189.22 67.5,190.5C 67.4021,188.447 68.0687,186.78 69.5,185.5 Z"/></g>
<g><path style="opacity:0.639" fill="#7a7a7a" d="M 428.5,187.5 C 428.027,188.906 427.027,189.573 425.5,189.5C 425.973,188.094 426.973,187.427 428.5,187.5 Z"/></g>
<g><path style="opacity:0.588" fill="#777777" d="M 252.5,186.5 C 251.92,188.749 250.587,190.415 248.5,191.5C 249.08,189.251 250.413,187.585 252.5,186.5 Z"/></g>
<g><path style="opacity:0.055" fill="#d8d8d8" d="M 51.5,187.5 C 51.5979,189.553 50.9313,191.22 49.5,192.5C 49.4021,190.447 50.0687,188.78 51.5,187.5 Z"/></g>
<g><path style="opacity:0.702" fill="#737373" d="M 107.5,188.5 C 107.719,189.675 107.386,190.675 106.5,191.5C 105.893,191.376 105.56,191.043 105.5,190.5C 106.167,189.833 106.833,189.167 107.5,188.5 Z"/></g>
<g><path style="opacity:0.263" fill="#9a9a9a" d="M 130.5,186.5 C 132.158,189.623 131.325,191.956 128,193.5C 127.235,193.43 126.735,193.097 126.5,192.5C 127.931,191.918 129.264,191.085 130.5,190C 129.209,188.708 129.209,187.542 130.5,186.5 Z"/></g>
<g><path style="opacity:0.004" fill="#d0d0d0" d="M 67.5,190.5 C 67.7406,192.898 67.0739,194.898 65.5,196.5C 65.595,194.214 66.2616,192.214 67.5,190.5 Z"/></g>
<g><path style="opacity:0.271" fill="#858585" d="M 138.5,191.5 C 137.572,194.454 136.739,197.454 136,200.5C 135.617,201.056 135.117,201.389 134.5,201.5C 134.882,197.668 136.215,194.335 138.5,191.5 Z"/></g>
<g><path style="opacity:0.682" fill="#747474" d="M 419.5,192.5 C 419.027,193.906 418.027,194.573 416.5,194.5C 416.973,193.094 417.973,192.427 419.5,192.5 Z"/></g>
<g><path style="opacity:0.492" fill="#6e6e6e" d="M 217.5,181.5 C 219.029,187.99 220.029,194.656 220.5,201.5C 218.556,195.25 217.556,188.583 217.5,181.5 Z"/></g>
<g><path style="opacity:0.102" fill="#aaaaaa" d="M 433.5,196.5 C 436.962,195.518 440.629,195.185 444.5,195.5C 444.217,196.289 443.717,196.956 443,197.5C 439.943,196.549 436.777,196.216 433.5,196.5 Z"/></g>
<g><path style="opacity:0.784" fill="#848484" d="M 49.5,193.5 C 49.7062,196.495 49.0395,199.162 47.5,201.5C 47.2938,198.505 47.9605,195.838 49.5,193.5 Z"/></g>
<g><path style="opacity:0.004" fill="#c5c5c5" d="M 65.5,196.5 C 65.4349,199.428 64.7682,202.095 63.5,204.5C 63.2938,201.505 63.9605,198.838 65.5,196.5 Z"/></g>
<g><path style="opacity:0.733" fill="#8a8a8a" d="M 405.5,199.5 C 404.365,201.213 402.698,201.88 400.5,201.5C 401.93,200.463 403.597,199.796 405.5,199.5 Z"/></g>
<g><path style="opacity:0.278" fill="#adadad" d="M 92.5,195.5 C 92.5,196.833 92.5,198.167 92.5,199.5C 90.0532,199.615 88.0532,200.615 86.5,202.5C 86.9666,199.703 88.6333,198.369 91.5,198.5C 91.2627,197.209 91.596,196.209 92.5,195.5 Z"/></g>
<g><path style="opacity:0.078" fill="#bebebe" d="M 357.5,200.5 C 358.71,200.932 359.71,201.599 360.5,202.5C 358.821,202.715 357.821,202.048 357.5,200.5 Z"/></g>
<g><path style="opacity:0.576" fill="#8b8b8b" d="M 400.5,201.5 C 400.027,202.906 399.027,203.573 397.5,203.5C 397.973,202.094 398.973,201.427 400.5,201.5 Z"/></g>
<g><path style="opacity:0.745" fill="#585858" d="M 240.5,201.5 C 239.461,203.531 237.795,204.864 235.5,205.5C 236.579,203.457 238.246,202.124 240.5,201.5 Z"/></g>
<g><path style="opacity:0.667" fill="#929292" d="M 336.5,203.5 C 339.385,203.194 342.052,203.527 344.5,204.5C 343.883,204.611 343.383,204.944 343,205.5C 340.723,204.883 338.556,204.216 336.5,203.5 Z"/></g>
<g><path style="opacity:0.302" fill="#a2a2a2" d="M 133.5,203.5 C 133.573,205.027 132.906,206.027 131.5,206.5C 131.427,204.973 132.094,203.973 133.5,203.5 Z"/></g>
<g><path style="opacity:0.188" fill="#c0c0c0" d="M 344.5,204.5 C 348.705,204.717 352.705,205.383 356.5,206.5C 352.21,206.802 348.21,206.136 344.5,204.5 Z"/></g>
<g><path style="opacity:0.816" fill="#737373" d="M 394.5,204.5 C 393.365,206.213 391.698,206.88 389.5,206.5C 390.93,205.463 392.597,204.796 394.5,204.5 Z"/></g>
<g><path style="opacity:0.251" fill="#a2a2a2" d="M 172.5,204.5 C 172.573,206.027 171.906,207.027 170.5,207.5C 170.427,205.973 171.094,204.973 172.5,204.5 Z"/></g>
<g><path style="opacity:0.243" fill="#afafaf" d="M 47.5,201.5 C 47.5905,204.152 46.9238,206.485 45.5,208.5C 45.4095,205.848 46.0762,203.515 47.5,201.5 Z"/></g>
<g><path style="opacity:0.004" fill="#cfcfcf" d="M 326.5,206.5 C 326.5,207.833 325.833,208.5 324.5,208.5C 324.833,207.5 325.5,206.833 326.5,206.5 Z"/></g>
<g><path style="opacity:0.004" fill="#eaeaea" d="M 416.5,206.5 C 416.027,207.906 415.027,208.573 413.5,208.5C 413.973,207.094 414.973,206.427 416.5,206.5 Z"/></g>
<g><path style="opacity:0.718" fill="#747474" d="M 424.5,206.5 C 424.027,207.906 423.027,208.573 421.5,208.5C 421.973,207.094 422.973,206.427 424.5,206.5 Z"/></g>
<g><path style="opacity:0.078" fill="#bdbdbd" d="M 435.5,203.5 C 436.924,205.515 437.59,207.848 437.5,210.5C 435.837,208.562 435.171,206.228 435.5,203.5 Z"/></g>
<g><path style="opacity:0.071" fill="#c8c8c8" d="M 108.5,206.5 C 108.573,208.027 107.906,209.027 106.5,209.5C 106.427,207.973 107.094,206.973 108.5,206.5 Z"/></g>
<g><path style="opacity:0.012" fill="#cacaca" d="M 106.5,209.5 C 106.573,211.027 105.906,212.027 104.5,212.5C 104.427,210.973 105.094,209.973 106.5,209.5 Z"/></g>
<g><path style="opacity:0.035" fill="#bababa" d="M 63.5,204.5 C 62.9915,208.736 61.9915,212.736 60.5,216.5C 60.5023,212.126 61.5023,208.126 63.5,204.5 Z"/></g>
<g><path style="opacity:0.396" fill="#8d8d8d" d="M 104.5,212.5 C 101.003,213.402 97.3366,214.069 93.5,214.5C 93.9175,213.778 94.5842,213.278 95.5,213C 98.4816,212.502 101.482,212.335 104.5,212.5 Z"/></g>
<g><path style="opacity:0.435" fill="#777777" d="M 168.5,211.5 C 168.573,213.027 167.906,214.027 166.5,214.5C 166.427,212.973 167.094,211.973 168.5,211.5 Z"/></g>
<g><path style="opacity:0.482" fill="#a4a4a4" d="M 376.5,212.5 C 376.027,213.906 375.027,214.573 373.5,214.5C 373.973,213.094 374.973,212.427 376.5,212.5 Z"/></g>
<g><path style="opacity:0.004" fill="#b6b6b6" d="M 421.5,208.5 C 421.942,212.154 422.276,215.821 422.5,219.5C 421.32,216.479 420.32,213.313 419.5,210C 420.044,209.283 420.711,208.783 421.5,208.5 Z"/></g>
<g><path style="opacity:0.004" fill="#dfdfdf" d="M 403.5,214.5 C 403.027,215.906 402.027,216.573 400.5,216.5C 400.973,215.094 401.973,214.427 403.5,214.5 Z"/></g>
<g><path style="opacity:0.361" fill="#919191" d="M 131.5,206.5 C 130.608,210.975 129.608,215.308 128.5,219.5C 128.335,216.482 128.502,213.482 129,210.5C 129.2,208.68 130.034,207.347 131.5,206.5 Z"/></g>
<g><path style="opacity:0.349" fill="#8d8d8d" d="M 166.5,214.5 C 166.573,216.027 165.906,217.027 164.5,217.5C 164.427,215.973 165.094,214.973 166.5,214.5 Z"/></g>
<g><path style="opacity:0.627" fill="#747474" d="M 222.5,215.5 C 222.027,216.906 221.027,217.573 219.5,217.5C 219.973,216.094 220.973,215.427 222.5,215.5 Z"/></g>
<g><path style="opacity:0.624" fill="#7e7e7e" d="M 371.5,215.5 C 371.027,216.906 370.027,217.573 368.5,217.5C 368.973,216.094 369.973,215.427 371.5,215.5 Z"/></g>
<g><path style="opacity:0.11" fill="#d3d3d3" d="M 438.5,217.5 C 439.343,219.487 440.01,221.654 440.5,224C 440.43,224.765 440.097,225.265 439.5,225.5C 438.735,222.904 438.401,220.237 438.5,217.5 Z"/></g>
<g><path style="opacity:0.004" fill="#bfbfbf" d="M 145.5,216.5 C 145.741,218.898 145.074,220.898 143.5,222.5C 143.595,220.214 144.262,218.214 145.5,216.5 Z"/></g>
<g><path style="opacity:0.02" fill="#cfcfcf" d="M 314.5,218.5 C 314.027,219.906 313.027,220.573 311.5,220.5C 311.973,219.094 312.973,218.427 314.5,218.5 Z"/></g>
<g><path style="opacity:0.057" fill="#d4d4d4" d="M 44.5,214.5 C 44.678,218.122 44.0114,221.456 42.5,224.5C 42.5488,220.922 43.2154,217.589 44.5,214.5 Z"/></g>
<g><path style="opacity:0.09" fill="#c3c3c3" d="M 128.5,219.5 C 128.125,221.698 127.458,223.698 126.5,225.5C 126.054,222.99 126.72,220.99 128.5,219.5 Z"/></g>
<g><path style="opacity:0.502" fill="#6d6d6d" d="M 163.5,219.5 C 163.573,221.027 162.906,222.027 161.5,222.5C 161.427,220.973 162.094,219.973 163.5,219.5 Z"/></g>
<g><path style="opacity:0.02" fill="#cacaca" d="M 311.5,220.5 C 311.5,221.833 310.833,222.5 309.5,222.5C 309.833,221.5 310.5,220.833 311.5,220.5 Z"/></g>
<g><path style="opacity:0.027" fill="#d7d7d7" d="M 392.5,221.5 C 392.027,222.906 391.027,223.573 389.5,223.5C 389.973,222.094 390.973,221.427 392.5,221.5 Z"/></g>
<g><path style="opacity:0.373" fill="#8c8c8c" d="M 161.5,222.5 C 161.573,224.027 160.906,225.027 159.5,225.5C 159.427,223.973 160.094,222.973 161.5,222.5 Z"/></g>
<g><path style="opacity:0.573" fill="#848484" d="M 354.5,224.5 C 354.027,225.906 353.027,226.573 351.5,226.5C 351.973,225.094 352.973,224.427 354.5,224.5 Z"/></g>
<g><path style="opacity:0.651" fill="#939393" d="M 126.5,225.5 C 126.741,227.898 126.074,229.898 124.5,231.5C 124.595,229.214 125.262,227.214 126.5,225.5 Z"/></g>
<g><path style="opacity:0.471" fill="#727272" d="M 158.5,227.5 C 158.573,229.027 157.906,230.027 156.5,230.5C 156.427,228.973 157.094,227.973 158.5,227.5 Z"/></g>
<g><path style="opacity:0.306" fill="#b3b3b3" d="M 422.5,220.5 C 424.031,225.25 424.698,230.25 424.5,235.5C 423.275,230.71 422.608,225.71 422.5,220.5 Z"/></g>
<g><path style="opacity:0.541" fill="#939393" d="M 346.5,229.5 C 346.027,230.906 345.027,231.573 343.5,231.5C 343.973,230.094 344.973,229.427 346.5,229.5 Z"/></g>
<g><path style="opacity:0.016" fill="#dcdcdc" d="M 378.5,230.5 C 378.027,231.906 377.027,232.573 375.5,232.5C 375.973,231.094 376.973,230.427 378.5,230.5 Z"/></g>
<g><path style="opacity:0.016" fill="#c9c9c9" d="M 300.5,231.5 C 299.738,233.262 298.404,234.262 296.5,234.5C 297.262,232.738 298.596,231.738 300.5,231.5 Z"/></g>
<g><path style="opacity:0.016" fill="#dcdcdc" d="M 375.5,232.5 C 375.027,233.906 374.027,234.573 372.5,234.5C 372.973,233.094 373.973,232.427 375.5,232.5 Z"/></g>
<g><path style="opacity:0.243" fill="#a5a5a5" d="M 60.5,218.5 C 59.355,226.957 58.355,235.291 57.5,243.5C 57.334,238.156 57.5006,232.823 58,227.5C 58.2037,224.203 59.037,221.203 60.5,218.5 Z"/></g>
<g><path style="opacity:0.584" fill="#8b8b8b" d="M 337.5,234.5 C 337.027,235.906 336.027,236.573 334.5,236.5C 334.973,235.094 335.973,234.427 337.5,234.5 Z"/></g>
<g><path style="opacity:0.549" fill="#919191" d="M 330.5,238.5 C 330.027,239.906 329.027,240.573 327.5,240.5C 327.973,239.094 328.973,238.427 330.5,238.5 Z"/></g>
<g><path style="opacity:0.647" fill="#7a7a7a" d="M 153.5,236.5 C 153.472,241.862 153.806,247.195 154.5,252.5C 153.065,249.45 152.398,246.117 152.5,242.5C 152.505,240.304 152.838,238.304 153.5,236.5 Z"/></g>
<g><path style="opacity:0.51" fill="#969696" d="M 325.5,241.5 C 325.027,242.906 324.027,243.573 322.5,243.5C 322.973,242.094 323.973,241.427 325.5,241.5 Z"/></g>
<g><path style="opacity:0.859" fill="#717171" d="M 115.5,242.5 C 114.699,244.042 114.366,245.708 114.5,247.5C 111.695,245.244 112.028,243.577 115.5,242.5 Z"/></g>
<g><path style="opacity:0.247" fill="#929292" d="M 142.5,241.5 C 144.344,243.279 145.01,245.612 144.5,248.5C 143.732,246.285 143.065,243.952 142.5,241.5 Z"/></g>
<g><path style="opacity:0.588" fill="#848484" d="M 322.5,243.5 C 322.027,244.906 321.027,245.573 319.5,245.5C 319.973,244.094 320.973,243.427 322.5,243.5 Z"/></g>
<g><path style="opacity:0.569" fill="#767676" d="M 319.5,245.5 C 318.738,247.262 317.404,248.262 315.5,248.5C 316.262,246.738 317.596,245.738 319.5,245.5 Z"/></g>
<g><path style="opacity:0.027" fill="#d6d6d6" d="M 356.5,245.5 C 356.027,246.906 355.027,247.573 353.5,247.5C 353.973,246.094 354.973,245.427 356.5,245.5 Z"/></g>
<g><path style="opacity:0.12" fill="#c2c2c2" d="M 424.5,236.5 C 425.833,245.833 425.833,255.167 424.5,264.5C 424.5,255.167 424.5,245.833 424.5,236.5 Z"/></g>
<g><path style="opacity:0.271" fill="#a9a9a9" d="M 439.5,226.5 C 440.314,228.631 440.814,230.964 441,233.5C 441.667,245.167 441.667,256.833 441,268.5C 440.515,275.752 439.348,282.752 437.5,289.5C 440.497,268.58 441.164,247.58 439.5,226.5 Z"/></g>
<g><path style="opacity:0.412" fill="#797979" d="M 57.5,244.5 C 57.6073,248.524 57.6073,252.857 57.5,257.5C 56.1667,253.167 56.1667,248.833 57.5,244.5 Z"/></g>
<g><path style="opacity:0.769" fill="#7b7b7b" d="M 117.5,249.5 C 119.898,249.259 121.898,249.926 123.5,251.5C 121.214,251.405 119.214,250.738 117.5,249.5 Z"/></g>
<g><path style="opacity:0.004" fill="#b8b8b8" d="M 281.5,248.5 C 281.5,249.833 280.833,250.5 279.5,250.5C 279.833,249.5 280.5,248.833 281.5,248.5 Z"/></g>
<g><path style="opacity:0.004" fill="#dcdcdc" d="M 352.5,248.5 C 352.027,249.906 351.027,250.573 349.5,250.5C 349.973,249.094 350.973,248.427 352.5,248.5 Z"/></g>
<g><path style="opacity:0.008" fill="#c7c7c7" d="M 279.5,250.5 C 279.5,251.833 278.833,252.5 277.5,252.5C 277.833,251.5 278.5,250.833 279.5,250.5 Z"/></g>
<g><path style="opacity:0.91" fill="#555555" d="M 315.5,248.5 C 314.415,250.587 312.749,251.92 310.5,252.5C 311.585,250.413 313.251,249.08 315.5,248.5 Z"/></g>
<g><path style="opacity:0.427" fill="#919191" d="M 310.5,252.5 C 309.833,253.833 308.833,254.833 307.5,255.5C 307.5,253.5 308.5,252.5 310.5,252.5 Z"/></g>
<g><path style="opacity:1" fill="#4f4f4f" d="M 272.5,257.5 C 271.833,258.833 270.833,259.833 269.5,260.5C 267.833,256.833 268.833,255.833 272.5,257.5 Z"/></g>
<g><path style="opacity:0.016" fill="#c8c8c8" d="M 343.5,255.5 C 343.027,256.906 342.027,257.573 340.5,257.5C 340.973,256.094 341.973,255.427 343.5,255.5 Z"/></g>
<g><path style="opacity:0.176" fill="#afafaf" d="M 262.5,264.5 C 260.401,265.612 258.067,266.279 255.5,266.5C 257.438,264.837 259.772,264.171 262.5,264.5 Z"/></g>
<g><path style="opacity:0.039" fill="#e7e7e7" d="M 334.5,263.5 C 333.612,266.054 333.279,268.721 333.5,271.5C 332.844,270.378 332.511,269.045 332.5,267.5C 332.585,265.667 333.252,264.334 334.5,263.5 Z"/></g>
<g><path style="opacity:0.094" fill="#c5c5c5" d="M 131.5,264.5 C 132.782,265.708 132.782,267.042 131.5,268.5C 130.893,268.376 130.56,268.043 130.5,267.5C 131.404,266.791 131.737,265.791 131.5,264.5 Z"/></g>
<g><path style="opacity:0.22" fill="#a1a1a1" d="M 304.5,264.5 C 305.674,265.514 306.34,266.847 306.5,268.5C 304.896,267.713 304.229,266.38 304.5,264.5 Z"/></g>
<g><path style="opacity:0.682" fill="#9f9f9f" d="M 57.5,257.5 C 58.4909,264.323 59.1575,271.323 59.5,278.5C 58.6981,277.048 58.1981,275.382 58,273.5C 57.5006,268.177 57.334,262.844 57.5,257.5 Z"/></g>
<g><path style="opacity:0.918" fill="#6d6d6d" d="M 309.5,274.5 C 311.048,274.821 311.715,275.821 311.5,277.5C 310.599,276.71 309.932,275.71 309.5,274.5 Z"/></g>
<g><path style="opacity:0.902" fill="#707070" d="M 311.5,277.5 C 313.048,277.821 313.715,278.821 313.5,280.5C 312.599,279.71 311.932,278.71 311.5,277.5 Z"/></g>
<g><path style="opacity:0.318" fill="#9f9f9f" d="M 334.5,275.5 C 335.906,275.973 336.573,276.973 336.5,278.5C 335.094,278.027 334.427,277.027 334.5,275.5 Z"/></g>
<g><path style="opacity:0.412" fill="#9f9f9f" d="M 336.5,278.5 C 338.262,279.262 339.262,280.596 339.5,282.5C 337.738,281.738 336.738,280.404 336.5,278.5 Z"/></g>
<g><path style="opacity:0.761" fill="#8f8f8f" d="M 314.5,282.5 C 316.446,283.035 317.446,284.368 317.5,286.5C 316.026,285.564 315.026,284.23 314.5,282.5 Z"/></g>
<g><path style="opacity:0.22" fill="#bebebe" d="M 41.5,238.5 C 41.2179,259.731 43.2179,280.731 47.5,301.5C 41.7326,280.828 39.7326,259.828 41.5,238.5 Z"/></g>
<g><path style="opacity:0.706" fill="#8e8e8e" d="M 339.5,282.5 C 341.587,283.585 342.92,285.251 343.5,287.5C 341.413,286.415 340.08,284.749 339.5,282.5 Z"/></g>
<g><path style="opacity:0.839" fill="#6d6d6d" d="M 251.5,284.5 C 253.587,285.585 254.92,287.251 255.5,289.5C 253.413,288.415 252.08,286.749 251.5,284.5 Z"/></g>
<g><path style="opacity:0.098" fill="#b4b4b4" d="M 169.5,285.5 C 170.043,285.56 170.376,285.893 170.5,286.5C 166.548,287.494 162.548,288.16 158.5,288.5C 162.066,287.097 165.733,286.097 169.5,285.5 Z"/></g>
<g><path style="opacity:0.678" fill="#818181" d="M 157.5,288.5 C 157.027,289.906 156.027,290.573 154.5,290.5C 154.973,289.094 155.973,288.427 157.5,288.5 Z"/></g>
<g><path style="opacity:0.227" fill="#b3b3b3" d="M 422.5,282.5 C 422.58,285.781 421.913,288.781 420.5,291.5C 420.42,288.219 421.087,285.219 422.5,282.5 Z"/></g>
<g><path style="opacity:0.667" fill="#797979" d="M 154.5,290.5 C 154.027,291.906 153.027,292.573 151.5,292.5C 151.973,291.094 152.973,290.427 154.5,290.5 Z"/></g>
<g><path style="opacity:0.725" fill="#7d7d7d" d="M 151.5,292.5 C 151.262,294.404 150.262,295.738 148.5,296.5C 148.738,294.596 149.738,293.262 151.5,292.5 Z"/></g>
<g><path style="opacity:0.62" fill="#727272" d="M 346.5,291.5 C 348.262,292.262 349.262,293.596 349.5,295.5C 347.738,294.738 346.738,293.404 346.5,291.5 Z"/></g>
<g><path style="opacity:0.161" fill="#b9b9b9" d="M 437.5,290.5 C 436.706,297.165 435.04,303.499 432.5,309.5C 433.547,302.898 435.214,296.565 437.5,290.5 Z"/></g>
<g><path style="opacity:0.494" fill="#aaaaaa" d="M 62.5,294.5 C 64.2791,298.595 65.6124,302.928 66.5,307.5C 64.1022,303.597 62.7689,299.264 62.5,294.5 Z"/></g>
<g><path style="opacity:0.176" fill="#aeaeae" d="M 321.5,294.5 C 322.147,295.274 322.48,296.274 322.5,297.5C 322.66,299.355 321.993,300.688 320.5,301.5C 321.219,299.236 321.552,296.903 321.5,294.5 Z"/></g>
<g><path style="opacity:0.773" fill="#828282" d="M 266.5,297.5 C 267.71,297.932 268.71,298.599 269.5,299.5C 267.821,299.715 266.821,299.048 266.5,297.5 Z"/></g>
<g><path style="opacity:0.369" fill="#a8a8a8" d="M 420.5,291.5 C 420.706,294.495 420.04,297.162 418.5,299.5C 418.565,296.572 419.232,293.905 420.5,291.5 Z"/></g>
<g><path style="opacity:0.251" fill="#9f9f9f" d="M 272.5,301.5 C 274.553,301.402 276.22,302.069 277.5,303.5C 275.447,303.598 273.78,302.931 272.5,301.5 Z"/></g>
<g><path style="opacity:0.012" fill="#bfbfbf" d="M 47.5,301.5 C 50.0746,308.34 52.4079,315.34 54.5,322.5C 50.7994,316.062 48.466,309.062 47.5,301.5 Z"/></g>
<g><path style="opacity:0.259" fill="#aaaaaa" d="M 277.5,303.5 C 279.553,303.402 281.22,304.069 282.5,305.5C 280.447,305.598 278.78,304.931 277.5,303.5 Z"/></g>
<g><path style="opacity:0.404" fill="#7b7b7b" d="M 147.5,298.5 C 148.372,302.862 149.372,307.196 150.5,311.5C 148.42,309.682 147.086,307.349 146.5,304.5C 146.785,302.436 147.118,300.436 147.5,298.5 Z"/></g>
<g><path style="opacity:0.114" fill="#b9b9b9" d="M 282.5,305.5 C 285.152,305.41 287.485,306.076 289.5,307.5C 286.848,307.59 284.515,306.924 282.5,305.5 Z"/></g>
<g><path style="opacity:0.094" fill="#b5b5b5" d="M 418.5,299.5 C 418.868,303.044 417.868,306.044 415.5,308.5C 416.265,305.33 417.265,302.33 418.5,299.5 Z"/></g>
<g><path style="opacity:0.583" fill="#8a8a8a" d="M 352.5,301.5 C 354.039,304.865 354.706,308.531 354.5,312.5C 354.908,317.593 353.908,322.26 351.5,326.5C 353.623,318.239 353.956,309.906 352.5,301.5 Z"/></g>
<g><path style="opacity:0.741" fill="#888888" d="M 66.5,307.5 C 67.4582,309.302 68.1249,311.302 68.5,313.5C 66.7202,312.01 66.0535,310.01 66.5,307.5 Z"/></g>
<g><path style="opacity:0.004" fill="#c9c9c9" d="M 432.5,309.5 C 432.741,311.898 432.074,313.898 430.5,315.5C 430.595,313.214 431.262,311.214 432.5,309.5 Z"/></g>
<g><path style="opacity:0.792" fill="#686868" d="M 150.5,311.5 C 152.759,312.344 153.759,314.011 153.5,316.5C 152.11,315.101 151.11,313.434 150.5,311.5 Z"/></g>
<g><path style="opacity:0.839" fill="#838383" d="M 414.5,312.5 C 414.88,314.698 414.213,316.365 412.5,317.5C 412.402,315.447 413.069,313.78 414.5,312.5 Z"/></g>
<g><path style="opacity:0.784" fill="#8c8c8c" d="M 69.5,316.5 C 70.9313,317.78 71.5979,319.447 71.5,321.5C 69.7868,320.365 69.1201,318.698 69.5,316.5 Z"/></g>
<g><path style="opacity:0.075" fill="#d3d3d3" d="M 412.5,317.5 C 412.598,319.553 411.931,321.22 410.5,322.5C 410.402,320.447 411.069,318.78 412.5,317.5 Z"/></g>
<g><path style="opacity:0.749" fill="#787878" d="M 158.5,321.5 C 161.5,322.5 163.5,324.5 164.5,327.5C 162.167,325.833 160.167,323.833 158.5,321.5 Z"/></g>
<g><path style="opacity:0.071" fill="#d4d4d4" d="M 72.5,323.5 C 73.9313,324.78 74.5979,326.447 74.5,328.5C 73.0687,327.22 72.4021,325.553 72.5,323.5 Z"/></g>
<g><path style="opacity:0.157" fill="#c0c0c0" d="M 55.5,325.5 C 56.9313,326.78 57.5979,328.447 57.5,330.5C 56.0687,329.22 55.4021,327.553 55.5,325.5 Z"/></g>
<g><path style="opacity:0.114" fill="#c7c7c7" d="M 408.5,327.5 C 408.34,329.153 407.674,330.486 406.5,331.5C 406.229,329.62 406.896,328.287 408.5,327.5 Z"/></g>
<g><path style="opacity:0.639" fill="#7e7e7e" d="M 158.5,333.5 C 156.833,333.5 155.167,333.5 153.5,333.5C 155.167,330.833 156.833,330.833 158.5,333.5 Z"/></g>
<g><path style="opacity:0.133" fill="#b6b6b6" d="M 59.5,334.5 C 60.6737,335.514 61.3404,336.847 61.5,338.5C 59.8958,337.713 59.2291,336.38 59.5,334.5 Z"/></g>
<g><path style="opacity:0.055" fill="#d5d5d5" d="M 347.5,333.5 C 347.771,335.38 347.104,336.713 345.5,337.5C 345.66,335.847 346.326,334.514 347.5,333.5 Z"/></g>
<g><path style="opacity:0.678" fill="#8e8e8e" d="M 147.5,337.5 C 146.167,337.833 144.833,338.167 143.5,338.5C 144.538,336.481 145.872,336.147 147.5,337.5 Z"/></g>
<g><path style="opacity:0.11" fill="#c8c8c8" d="M 423.5,333.5 C 423.206,336.754 421.873,339.421 419.5,341.5C 420.326,338.515 421.659,335.849 423.5,333.5 Z"/></g>
<g><path style="opacity:0.627" fill="#878787" d="M 143.5,338.5 C 143.027,339.906 142.027,340.573 140.5,340.5C 140.973,339.094 141.973,338.427 143.5,338.5 Z"/></g>
<g><path style="opacity:0.451" fill="#7f7f7f" d="M 164.5,338.5 C 167.373,338.802 170.039,339.469 172.5,340.5C 170.143,340.663 167.81,340.497 165.5,340C 164.944,339.617 164.611,339.117 164.5,338.5 Z"/></g>
<g><path style="opacity:0.782" fill="#474747" d="M 168.5,331.5 C 169.5,331.5 170.5,331.5 171.5,331.5C 171.351,332.552 171.517,333.552 172,334.5C 175.813,335.488 178.313,338.155 179.5,342.5C 177.901,342.768 176.568,342.434 175.5,341.5C 176.833,341.167 176.833,340.833 175.5,340.5C 172.761,337.767 170.427,334.767 168.5,331.5 Z"/></g>
<g><path style="opacity:0.133" fill="#c8c8c8" d="M 403.5,337.5 C 403.25,339.674 402.25,341.341 400.5,342.5C 400.75,340.326 401.75,338.659 403.5,337.5 Z"/></g>
<g><path style="opacity:0.106" fill="#d5d5d5" d="M 79.5,338.5 C 80.9063,338.973 81.573,339.973 81.5,341.5C 80.0937,341.027 79.427,340.027 79.5,338.5 Z"/></g>
<g><path style="opacity:0.247" fill="#979797" d="M 204.5,339.5 C 206.027,339.427 207.027,340.094 207.5,341.5C 205.973,341.573 204.973,340.906 204.5,339.5 Z"/></g>
<g><path style="opacity:0.596" fill="#969696" d="M 140.5,340.5 C 140.573,342.027 139.906,343.027 138.5,343.5C 138.427,341.973 139.094,340.973 140.5,340.5 Z"/></g>
<g><path style="opacity:0.584" fill="#8c8c8c" d="M 208.5,341.5 C 210.898,341.259 212.898,341.926 214.5,343.5C 212.214,343.405 210.214,342.738 208.5,341.5 Z"/></g>
<g><path style="opacity:0.008" fill="#dfdfdf" d="M 341.5,342.5 C 341.027,343.906 340.027,344.573 338.5,344.5C 338.973,343.094 339.973,342.427 341.5,342.5 Z"/></g>
<g><path style="opacity:0.459" fill="#7d7d7d" d="M 215.5,343.5 C 217.027,343.427 218.027,344.094 218.5,345.5C 216.973,345.573 215.973,344.906 215.5,343.5 Z"/></g>
<g><path style="opacity:0.118" fill="#bcbcbc" d="M 61.5,338.5 C 63.341,340.849 64.6743,343.515 65.5,346.5C 63.127,344.421 61.7936,341.754 61.5,338.5 Z"/></g>
<g><path style="opacity:0.169" fill="#c1c1c1" d="M 336.5,345.5 C 335.089,347.539 333.089,348.539 330.5,348.5C 332.181,346.992 334.181,345.992 336.5,345.5 Z"/></g>
<g><path style="opacity:0.173" fill="#c9c9c9" d="M 399.5,344.5 C 399.573,346.027 398.906,347.027 397.5,347.5C 397.427,345.973 398.094,344.973 399.5,344.5 Z"/></g>
<g><path style="opacity:0.173" fill="#c7c7c7" d="M 83.5,345.5 C 84.9063,345.973 85.573,346.973 85.5,348.5C 84.0937,348.027 83.427,347.027 83.5,345.5 Z"/></g>
<g><path style="opacity:0.243" fill="#a4a4a4" d="M 145.5,347.5 C 146.5,347.5 147.5,347.5 148.5,347.5C 148.737,348.791 148.404,349.791 147.5,350.5C 147.218,349.222 146.551,348.222 145.5,347.5 Z"/></g>
<g><path style="opacity:0.584" fill="#858585" d="M 136.5,345.5 C 135.92,347.749 134.587,349.415 132.5,350.5C 133.08,348.251 134.413,346.585 136.5,345.5 Z"/></g>
<g><path style="opacity:0.555" fill="#6d6d6d" d="M 193.5,343.5 C 195.645,343.738 197.312,344.738 198.5,346.5C 197.352,350.147 197.352,353.814 198.5,357.5C 196.973,353.787 195.973,349.787 195.5,345.5C 194.478,345.145 193.811,344.478 193.5,343.5 Z"/></g>
<g><path style="opacity:0.118" fill="#cecece" d="M 397.5,347.5 C 397.25,349.674 396.25,351.341 394.5,352.5C 394.75,350.326 395.75,348.659 397.5,347.5 Z"/></g>
<g><path style="opacity:0.012" fill="#c3c3c3" d="M 327.5,349.5 C 325.898,351.074 323.898,351.741 321.5,351.5C 323.214,350.262 325.214,349.595 327.5,349.5 Z"/></g>
<g><path style="opacity:0.302" fill="#acacac" d="M 86.5,350.5 C 87.9063,350.973 88.573,351.973 88.5,353.5C 87.0937,353.027 86.427,352.027 86.5,350.5 Z"/></g>
<g><path style="opacity:0.992" fill="#5b5b5b" d="M 132.5,350.5 C 132.5,351.833 133.167,352.5 134.5,352.5C 132.645,354.033 130.812,355.7 129,357.5C 128.557,354.386 129.724,352.052 132.5,350.5 Z"/></g>
<g><path style="opacity:0.008" fill="#d2d2d2" d="M 321.5,351.5 C 319.485,352.924 317.152,353.59 314.5,353.5C 316.515,352.076 318.848,351.41 321.5,351.5 Z"/></g>
<g><path style="opacity:0.076" fill="#afafaf" d="M 153.5,354.5 C 156.304,353.362 159.304,353.195 162.5,354C 163.056,354.383 163.389,354.883 163.5,355.5C 160.236,354.676 156.902,354.342 153.5,354.5 Z"/></g>
<g><path style="opacity:0.059" fill="#d7d7d7" d="M 68.5,352.5 C 69.9063,352.973 70.573,353.973 70.5,355.5C 69.0937,355.027 68.427,354.027 68.5,352.5 Z"/></g>
<g><path style="opacity:0.502" fill="#7a7a7a" d="M 219.5,351.5 C 219.664,354.187 219.497,356.854 219,359.5C 218.722,360.416 218.222,361.082 217.5,361.5C 217.899,357.989 218.566,354.656 219.5,351.5 Z"/></g>
<g><path style="opacity:0.104" fill="#d5d5d5" d="M 313.5,353.5 C 310.479,354.68 307.313,355.68 304,356.5C 303.601,356.272 303.435,355.938 303.5,355.5C 306.589,354.215 309.922,353.549 313.5,353.5 Z"/></g>
<g><path style="opacity:0.235" fill="#bababa" d="M 394.5,352.5 C 394.573,354.027 393.906,355.027 392.5,355.5C 392.427,353.973 393.094,352.973 394.5,352.5 Z"/></g>
<g><path style="opacity:0.341" fill="#a5a5a5" d="M 88.5,353.5 C 89.9063,353.973 90.573,354.973 90.5,356.5C 89.0937,356.027 88.427,355.027 88.5,353.5 Z"/></g>
<g><path style="opacity:0.796" fill="#797979" d="M 184.5,356.5 C 180.599,359.492 176.599,359.825 172.5,357.5C 176.519,357.354 180.519,357.021 184.5,356.5 Z"/></g>
<g><path style="opacity:0.345" fill="#aaaaaa" d="M 392.5,355.5 C 392.573,357.027 391.906,358.027 390.5,358.5C 390.427,356.973 391.094,355.973 392.5,355.5 Z"/></g>
<g><path style="opacity:0.004" fill="#e2e2e2" d="M 71.5,357.5 C 72.9063,357.973 73.573,358.973 73.5,360.5C 72.0937,360.027 71.427,359.027 71.5,357.5 Z"/></g>
<g><path style="opacity:0.431" fill="#939393" d="M 90.5,356.5 C 91.9063,356.973 92.573,357.973 92.5,359.5C 91.0937,359.027 90.427,358.027 90.5,356.5 Z"/></g>
<g><path style="opacity:0.898" fill="#626262" d="M 142.5,355.5 C 142.322,356.695 141.989,357.862 141.5,359C 141.836,360.03 142.503,360.53 143.5,360.5C 142.04,362.463 140.373,364.296 138.5,366C 137.365,366.749 136.365,366.583 135.5,365.5C 137.083,361.593 139.416,358.26 142.5,355.5 Z"/></g>
<g><path style="opacity:0.741" fill="#808080" d="M 92.5,359.5 C 94.2624,360.262 95.2624,361.596 95.5,363.5C 93.7376,362.738 92.7376,361.404 92.5,359.5 Z"/></g>
<g><path style="opacity:0.451" fill="#9d9d9d" d="M 390.5,358.5 C 390.262,360.404 389.262,361.738 387.5,362.5C 387.738,360.596 388.738,359.262 390.5,358.5 Z"/></g>
<g><path style="opacity:0.016" fill="#d5d5d5" d="M 409.5,359.5 C 409.573,361.027 408.906,362.027 407.5,362.5C 407.427,360.973 408.094,359.973 409.5,359.5 Z"/></g>
<g><path style="opacity:0.067" fill="#b1b1b1" d="M 201.5,362.5 C 202.757,363.623 202.424,364.289 200.5,364.5C 200.833,363.833 201.167,363.167 201.5,362.5 Z"/></g>
<g><path style="opacity:0.667" fill="#838383" d="M 387.5,362.5 C 387.573,364.027 386.906,365.027 385.5,365.5C 385.427,363.973 386.094,362.973 387.5,362.5 Z"/></g>
<g><path style="opacity:0.016" fill="#d5d5d5" d="M 407.5,362.5 C 407.573,364.027 406.906,365.027 405.5,365.5C 405.427,363.973 406.094,362.973 407.5,362.5 Z"/></g>
<g><path style="opacity:0.016" fill="#bababa" d="M 73.5,360.5 C 75.7964,361.733 77.1298,363.733 77.5,366.5C 75.684,364.882 74.3507,362.882 73.5,360.5 Z"/></g>
<g><path style="opacity:0.514" fill="#8f8f8f" d="M 95.5,363.5 C 97.5869,364.585 98.9202,366.251 99.5,368.5C 97.4131,367.415 96.0798,365.749 95.5,363.5 Z"/></g>
<g><path style="opacity:0.812" fill="#717171" d="M 215.5,365.5 C 215.262,367.404 214.262,368.738 212.5,369.5C 212.738,367.596 213.738,366.262 215.5,365.5 Z"/></g>
<g><path style="opacity:0.267" fill="#bcbcbc" d="M 385.5,365.5 C 385.167,366.5 384.5,367.167 383.5,367.5C 383.5,366.167 384.167,365.5 385.5,365.5 Z"/></g>
<g><path style="opacity:0.753" fill="#787878" d="M 173.5,370.5 C 170.833,369.167 168.167,369.167 165.5,370.5C 168.167,366.5 170.833,366.5 173.5,370.5 Z"/></g>
<g><path style="opacity:0.176" fill="#a5a5a5" d="M 189.5,366.5 C 189.443,367.609 189.11,368.609 188.5,369.5C 187.285,368.221 187.618,367.221 189.5,366.5 Z"/></g>
<g><path style="opacity:0.451" fill="#a7a7a7" d="M 383.5,367.5 C 382.581,370.089 380.914,372.089 378.5,373.5C 379.419,370.911 381.086,368.911 383.5,367.5 Z"/></g>
<g><path style="opacity:0.008" fill="#d6d6d6" d="M 402.5,369.5 C 402.573,371.027 401.906,372.027 400.5,372.5C 400.427,370.973 401.094,369.973 402.5,369.5 Z"/></g>
<g><path style="opacity:0.663" fill="#9c9c9c" d="M 101.5,370.5 C 103.587,371.585 104.92,373.251 105.5,375.5C 103.413,374.415 102.08,372.749 101.5,370.5 Z"/></g>
<g><path style="opacity:0.012" fill="#d3d3d3" d="M 399.5,373.5 C 399.262,375.404 398.262,376.738 396.5,377.5C 396.738,375.596 397.738,374.262 399.5,373.5 Z"/></g>
<g><path style="opacity:0.91" fill="#595959" d="M 162.5,374.5 C 161.687,375.653 160.687,375.653 159.5,374.5C 158.06,375.952 156.394,376.952 154.5,377.5C 156.185,373.749 158.851,372.749 162.5,374.5 Z"/></g>
<g><path style="opacity:0.847" fill="#6e6e6e" d="M 194.5,374.5 C 193.365,376.213 191.698,376.88 189.5,376.5C 190.93,375.463 192.597,374.796 194.5,374.5 Z"/></g>
<g><path style="opacity:0.012" fill="#cdcdcd" d="M 106.5,376.5 C 107.833,376.5 108.5,377.167 108.5,378.5C 107.5,378.167 106.833,377.5 106.5,376.5 Z"/></g>
<g><path style="opacity:0.008" fill="#d4d4d4" d="M 224.5,375.5 C 224.5,376.833 223.833,377.5 222.5,377.5C 222.833,376.5 223.5,375.833 224.5,375.5 Z"/></g>
<g><path style="opacity:0.008" fill="#cdcdcd" d="M 85.5,376.5 C 86.9063,376.973 87.573,377.973 87.5,379.5C 86.0937,379.027 85.427,378.027 85.5,376.5 Z"/></g>
<g><path style="opacity:0.008" fill="#cacaca" d="M 222.5,377.5 C 222.573,379.027 221.906,380.027 220.5,380.5C 220.427,378.973 221.094,377.973 222.5,377.5 Z"/></g>
<g><path style="opacity:0.588" fill="#7e7e7e" d="M 376.5,375.5 C 373.5,380.5 369.5,384.5 364.5,387.5C 368.167,383.167 372.167,379.167 376.5,375.5 Z"/></g>
<g><path style="opacity:0.004" fill="#c6c6c6" d="M 393.5,380.5 C 393.573,382.027 392.906,383.027 391.5,383.5C 391.427,381.973 392.094,380.973 393.5,380.5 Z"/></g>
<g><path style="opacity:0.016" fill="#bfbfbf" d="M 92.5,384.5 C 94.2624,385.262 95.2624,386.596 95.5,388.5C 93.7376,387.738 92.7376,386.404 92.5,384.5 Z"/></g>
<g><path style="opacity:0.016" fill="#bdbdbd" d="M 116.5,386.5 C 118.404,386.738 119.738,387.738 120.5,389.5C 118.596,389.262 117.262,388.262 116.5,386.5 Z"/></g>
<g><path style="opacity:0.004" fill="#dddddd" d="M 388.5,386.5 C 388.5,387.833 387.833,388.5 386.5,388.5C 386.833,387.5 387.5,386.833 388.5,386.5 Z"/></g>
<g><path style="opacity:0.843" fill="#545454" d="M 147.5,386.5 C 147.586,387.496 147.252,388.329 146.5,389C 147.094,389.464 147.761,389.631 148.5,389.5C 147.073,392.351 145.073,393.685 142.5,393.5C 143.453,390.57 145.12,388.237 147.5,386.5 Z"/></g>
<g><path style="opacity:0.788" fill="#7a7a7a" d="M 177.5,390.5 C 180.428,390.565 183.095,391.232 185.5,392.5C 182.505,392.706 179.838,392.04 177.5,390.5 Z"/></g>
<g><path style="opacity:0.467" fill="#999999" d="M 364.5,387.5 C 362.431,390.573 359.764,392.906 356.5,394.5C 358.569,391.427 361.236,389.094 364.5,387.5 Z"/></g>
<g><path style="opacity:0.227" fill="#9f9f9f" d="M 166.5,391.5 C 165.329,392.345 163.995,393.011 162.5,393.5C 163.183,391.824 164.517,391.157 166.5,391.5 Z"/></g>
<g><path style="opacity:0.898" fill="#6d6d6d" d="M 186.5,392.5 C 189.167,392.5 191.833,392.5 194.5,392.5C 191.951,394.605 189.285,394.605 186.5,392.5 Z"/></g>
<g><path style="opacity:0.522" fill="#747474" d="M 157.5,391.5 C 157.573,393.027 156.906,394.027 155.5,394.5C 155.427,392.973 156.094,391.973 157.5,391.5 Z"/></g>
<g><path style="opacity:0.627" fill="#9c9c9c" d="M 101.5,394.5 C 104.089,395.419 106.089,397.086 107.5,399.5C 104.911,398.581 102.911,396.914 101.5,394.5 Z"/></g>
<g><path style="opacity:0.412" fill="#9b9b9b" d="M 217.5,392.5 C 217.665,395.518 217.498,398.518 217,401.5C 216.764,403.119 215.931,404.119 214.5,404.5C 215.824,400.484 216.824,396.484 217.5,392.5 Z"/></g>
<g><path style="opacity:0.004" fill="#dbdbdb" d="M 379.5,395.5 C 379.5,396.833 378.833,397.5 377.5,397.5C 377.833,396.5 378.5,395.833 379.5,395.5 Z"/></g>
<g><path style="opacity:0.831" fill="#545454" d="M 155.5,394.5 C 155.821,396.048 156.821,396.715 158.5,396.5C 156.84,399.466 154.507,401.8 151.5,403.5C 151.167,403.167 150.833,402.833 150.5,402.5C 151.406,399.281 153.072,396.614 155.5,394.5 Z"/></g>
<g><path style="opacity:0.804" fill="#6f6f6f" d="M 356.5,394.5 C 355.415,396.587 353.749,397.92 351.5,398.5C 352.585,396.413 354.251,395.08 356.5,394.5 Z"/></g>
<g><path style="opacity:0.651" fill="#818181" d="M 351.5,398.5 C 351.027,399.906 350.027,400.573 348.5,400.5C 348.973,399.094 349.973,398.427 351.5,398.5 Z"/></g>
<g><path style="opacity:0.541" fill="#878787" d="M 348.5,400.5 C 347.738,402.262 346.404,403.262 344.5,403.5C 345.262,401.738 346.596,400.738 348.5,400.5 Z"/></g>
<g><path style="opacity:0.729" fill="#8f8f8f" d="M 110.5,402.5 C 112.749,403.08 114.415,404.413 115.5,406.5C 113.251,405.92 111.585,404.587 110.5,402.5 Z"/></g>
<g><path style="opacity:0.624" fill="#929292" d="M 339.5,406.5 C 339.027,407.906 338.027,408.573 336.5,408.5C 336.973,407.094 337.973,406.427 339.5,406.5 Z"/></g>
<g><path style="opacity:0.333" fill="#959595" d="M 115.5,406.5 C 117.749,407.08 119.415,408.413 120.5,410.5C 118.251,409.92 116.585,408.587 115.5,406.5 Z"/></g>
<g><path style="opacity:0.875" fill="#717171" d="M 146.5,408.5 C 147.71,408.932 148.71,409.599 149.5,410.5C 147.821,410.715 146.821,410.048 146.5,408.5 Z"/></g>
<g><path style="opacity:0.737" fill="#8b8b8b" d="M 120.5,410.5 C 122.404,410.738 123.738,411.738 124.5,413.5C 122.596,413.262 121.262,412.262 120.5,410.5 Z"/></g>
<g><path style="opacity:0.627" fill="#8d8d8d" d="M 334.5,409.5 C 334.027,410.906 333.027,411.573 331.5,411.5C 331.973,410.094 332.973,409.427 334.5,409.5 Z"/></g>
<g><path style="opacity:0.851" fill="#585858" d="M 201.5,408.5 C 200.089,410.914 198.089,412.581 195.5,413.5C 196.911,411.086 198.911,409.419 201.5,408.5 Z"/></g>
<g><path style="opacity:0.38" fill="#b8b8b8" d="M 329.5,412.5 C 328.486,413.674 327.153,414.34 325.5,414.5C 326.287,412.896 327.62,412.229 329.5,412.5 Z"/></g>
<g><path style="opacity:0.435" fill="#939393" d="M 124.5,413.5 C 126.027,413.427 127.027,414.094 127.5,415.5C 125.973,415.573 124.973,414.906 124.5,413.5 Z"/></g>
<g><path style="opacity:0.004" fill="#e5e5e5" d="M 358.5,413.5 C 358.027,414.906 357.027,415.573 355.5,415.5C 355.973,414.094 356.973,413.427 358.5,413.5 Z"/></g>
<g><path style="opacity:0.498" fill="#858585" d="M 127.5,415.5 C 129.027,415.427 130.027,416.094 130.5,417.5C 128.973,417.573 127.973,416.906 127.5,415.5 Z"/></g>
<g><path style="opacity:0.11" fill="#aaaaaa" d="M 191.5,415.5 C 193.662,416.417 195.995,416.417 198.5,415.5C 195.809,417.596 192.809,417.93 189.5,416.5C 189.957,415.702 190.624,415.369 191.5,415.5 Z"/></g>
<g><path style="opacity:0.388" fill="#b9b9b9" d="M 321.5,416.5 C 320.486,417.674 319.153,418.34 317.5,418.5C 318.287,416.896 319.62,416.229 321.5,416.5 Z"/></g>
<g><path style="opacity:0.459" fill="#898989" d="M 130.5,417.5 C 132.027,417.427 133.027,418.094 133.5,419.5C 131.973,419.573 130.973,418.906 130.5,417.5 Z"/></g>
<g><path style="opacity:0.004" fill="#e0e0e0" d="M 352.5,417.5 C 352.027,418.906 351.027,419.573 349.5,419.5C 349.973,418.094 350.973,417.427 352.5,417.5 Z"/></g>
<g><path style="opacity:0.365" fill="#989898" d="M 133.5,419.5 C 135.027,419.427 136.027,420.094 136.5,421.5C 134.973,421.573 133.973,420.906 133.5,419.5 Z"/></g>
<g><path style="opacity:0.788" fill="#808080" d="M 312.5,420.5 C 311.365,422.213 309.698,422.88 307.5,422.5C 308.93,421.463 310.597,420.796 312.5,420.5 Z"/></g>
<g><path style="opacity:0.357" fill="#979797" d="M 138.5,422.5 C 140.027,422.427 141.027,423.094 141.5,424.5C 139.973,424.573 138.973,423.906 138.5,422.5 Z"/></g>
<g><path style="opacity:0.71" fill="#8e8e8e" d="M 304.5,423.5 C 298.697,426.873 292.364,428.873 285.5,429.5C 291.698,427.362 298.032,425.362 304.5,423.5 Z"/></g>
<g><path style="opacity:0.196" fill="#b3b3b3" d="M 143.5,425.5 C 145.027,425.427 146.027,426.094 146.5,427.5C 144.973,427.573 143.973,426.906 143.5,425.5 Z"/></g>
<g><path style="opacity:0.788" fill="#747474" d="M 285.5,429.5 C 282.877,431.265 279.877,431.932 276.5,431.5C 279.311,430.525 282.311,429.858 285.5,429.5 Z"/></g>
<g><path style="opacity:0.302" fill="#a7a7a7" d="M 276.5,431.5 C 269.478,433.788 262.145,434.788 254.5,434.5C 261.672,433.333 269.006,432.333 276.5,431.5 Z"/></g>
<g><path style="opacity:0.322" fill="#999999" d="M 205.5,431.5 C 209.078,431.549 212.411,432.215 215.5,433.5C 211.878,433.678 208.544,433.011 205.5,431.5 Z"/></g>
<g><path style="opacity:0.227" fill="#a1a1a1" d="M 254.5,434.5 C 250.012,435.166 245.346,435.499 240.5,435.5C 232.286,435.595 224.286,434.928 216.5,433.5C 216.435,433.062 216.601,432.728 217,432.5C 229.385,434.237 241.885,434.904 254.5,434.5 Z"/></g>
<g><path style="opacity:0.875" fill="#707070" d="M 168.5,437.5 C 170.698,437.12 172.365,437.787 173.5,439.5C 171.597,439.204 169.93,438.537 168.5,437.5 Z"/></g>
<g><path style="opacity:0.145" fill="#c1c1c1" d="M 316.5,436.5 C 315.22,437.931 313.553,438.598 311.5,438.5C 312.78,437.069 314.447,436.402 316.5,436.5 Z"/></g>
<g><path style="opacity:0.863" fill="#6c6c6c" d="M 180.5,441.5 C 183.152,441.41 185.485,442.076 187.5,443.5C 184.772,443.829 182.438,443.163 180.5,441.5 Z"/></g>
<g><path style="opacity:0.094" fill="#bbbbbb" d="M 292.5,444.5 C 289.829,446.118 286.829,446.785 283.5,446.5C 286.273,445.343 289.273,444.676 292.5,444.5 Z"/></g>
<g><path style="opacity:0.067" fill="#c0c0c0" d="M 283.5,446.5 C 280.781,447.913 277.781,448.58 274.5,448.5C 277.219,447.087 280.219,446.42 283.5,446.5 Z"/></g>
</svg>
