<?xml version="1.0" standalone="no"?>
<!DOCTYPE svg PUBLIC "-//W3C//DTD SVG 20010904//EN"
 "http://www.w3.org/TR/2001/REC-SVG-20010904/DTD/svg10.dtd">
<svg version="1.0" xmlns="http://www.w3.org/2000/svg"
 width="403.000000pt" height="403.000000pt" viewBox="0 0 403.000000 403.000000"
 preserveAspectRatio="xMidYMid meet">

<g transform="translate(0.000000,403.000000) scale(0.100000,-0.100000)"
fill="#000000" stroke="none">
<path d="M1887 4006 c-31 -31 -159 -61 -219 -51 -73 13 -138 -37 -118 -89 10
-28 26 -34 32 -14 3 8 10 4 17 -10 12 -22 13 -23 26 -5 13 17 14 17 35 -2 18
-16 23 -17 30 -5 5 8 12 11 16 7 4 -3 -4 -16 -17 -27 -20 -17 -36 -19 -99 -17
l-74 2 -34 44 c-30 40 -34 42 -39 22 -3 -12 -13 -21 -24 -21 -26 0 -24 -12 9
-41 45 -40 69 -49 130 -49 32 0 61 -3 65 -6 11 -11 -5 -34 -24 -34 -21 0 -24
-11 -10 -38 5 -9 16 -32 23 -49 12 -31 48 -47 48 -22 0 6 14 9 33 7 27 -3 32
0 35 21 4 22 6 23 65 18 34 -4 85 -9 113 -13 71 -9 78 9 14 37 -59 26 -66 44
-12 35 95 -17 112 -18 112 -7 0 6 -6 11 -12 11 -7 0 -24 9 -38 20 -24 19 -24
20 -3 20 12 0 43 -9 69 -20 26 -12 56 -20 67 -18 18 3 18 3 0 23 -24 25 -36
55 -22 55 20 0 87 -40 93 -55 3 -9 6 -45 6 -80 0 -35 5 -67 10 -70 16 -10 12
-41 -10 -88 -26 -54 -149 -140 -186 -131 -21 5 -24 3 -24 -23 0 -33 -14 -48
-80 -81 -25 -12 -58 -35 -75 -50 -43 -39 -91 -72 -107 -72 -7 0 -24 -15 -38
-33 -41 -52 -70 -79 -82 -75 -20 7 -20 25 0 30 19 5 19 23 -4 135 -5 29 -4 31
15 26 19 -5 21 -1 21 37 0 32 -6 48 -27 70 -27 26 -53 64 -53 75 0 3 12 5 26
5 22 0 24 3 19 23 -18 65 -26 74 -67 83 -50 11 -58 28 -22 47 l26 14 -27 21
c-16 12 -45 25 -67 28 -43 7 -45 10 -22 35 16 17 15 19 -12 30 -17 6 -50 8
-77 4 -48 -6 -49 -6 -45 22 3 28 2 28 -51 28 -56 0 -73 13 -46 35 19 16 20 40
0 40 -23 0 -153 -90 -214 -148 -18 -17 -97 -55 -147 -71 -60 -19 -97 -54 -98
-93 -1 -26 -12 -43 -55 -83 -29 -27 -75 -65 -102 -83 -27 -18 -49 -39 -49 -47
0 -7 -2 -19 -5 -27 -7 -20 8 -37 43 -47 25 -7 36 -6 47 6 9 8 23 12 31 9 12
-4 15 -2 10 9 -5 14 4 19 32 16 11 -2 16 11 13 32 0 4 8 7 19 7 32 0 24 -23
-31 -83 -47 -52 -55 -57 -93 -57 -25 0 -51 8 -66 20 -42 33 -65 24 -36 -16 13
-16 13 -22 0 -41 -17 -27 -17 -27 56 -9 77 18 112 38 178 102 47 45 82 67 82
51 0 -18 -35 -67 -48 -67 -12 0 -13 -3 -4 -12 16 -16 15 -28 -3 -28 -24 0 -18
-13 28 -58 46 -46 57 -50 57 -26 0 12 7 14 29 9 l28 -6 -10 39 c-14 54 -6 68
58 98 67 32 74 42 38 50 -15 3 -32 7 -36 8 -15 3 28 43 70 64 57 29 61 41 13
35 -22 -3 -40 -2 -40 3 0 18 94 67 145 77 17 3 16 6 -12 23 -18 12 -30 24 -26
27 18 18 97 0 114 -26 4 -5 22 -10 40 -12 19 -2 37 -3 41 -4 22 -3 48 -48 48
-83 0 -32 5 -40 30 -53 33 -17 37 -38 16 -80 -10 -19 -12 -35 -5 -52 13 -34
11 -64 -6 -96 -10 -21 -12 -34 -5 -47 15 -29 12 -66 -10 -105 -13 -23 -20 -54
-20 -87 0 -28 -5 -66 -12 -84 -9 -27 -9 -35 5 -49 18 -17 21 -33 11 -59 -8
-20 -53 -20 -79 0 -20 15 -20 15 2 34 l23 18 -23 14 c-12 8 -42 20 -67 28 -63
19 -63 20 -44 41 22 24 9 41 -47 59 -32 11 -47 11 -71 2 -36 -13 -78 2 -59 21
21 21 11 35 -31 39 -24 3 -61 -1 -83 -8 -44 -15 -54 -12 -35 12 12 13 11 17
-1 25 -28 18 -86 1 -126 -35 -37 -35 -46 -33 -39 9 6 28 4 35 -9 35 -30 0 -93
-49 -111 -86 -13 -25 -28 -40 -47 -45 -27 -7 -27 -7 -27 42 0 27 -3 49 -7 49
-14 0 -68 -54 -92 -90 -37 -55 -83 -93 -93 -78 -10 17 -1 63 24 111 14 29 18
54 16 110 l-3 72 -32 -66 c-31 -66 -61 -146 -69 -184 -12 -62 -18 -82 -36
-114 -11 -20 -24 -40 -28 -46 -41 -52 -50 -87 -50 -192 0 -104 -15 -174 -52
-250 -10 -20 -7 -26 18 -48 39 -34 112 -33 84 0 -8 9 -6 14 6 19 13 5 14 9 4
21 -10 12 -10 18 0 30 6 8 9 19 6 24 -4 5 -2 12 4 16 5 3 10 15 10 27 0 33 23
6 39 -46 30 -102 -28 -195 -121 -196 -30 -1 -31 -2 -15 -14 20 -15 22 -32 5
-39 -7 -2 -10 -8 -6 -12 12 -13 83 15 115 44 45 41 57 83 55 188 -1 56 3 93 9
93 13 0 30 -46 23 -65 -4 -8 -2 -15 4 -15 6 0 8 -9 5 -20 -3 -11 0 -20 6 -20
6 0 11 -13 11 -30 l0 -30 69 0 c64 0 95 10 72 24 -5 3 -7 15 -4 25 3 13 -2 24
-16 33 -24 14 -27 48 -10 97 14 38 8 47 -21 31 -12 -6 -24 -9 -27 -6 -8 8 5
53 20 68 7 7 16 21 20 31 6 16 3 17 -29 11 -34 -6 -35 -5 -24 13 7 11 29 30
49 44 20 13 42 30 49 37 8 6 22 17 33 22 26 15 24 40 -3 40 l-23 1 24 19 c13
11 32 20 42 20 10 0 37 18 60 40 33 32 50 40 79 40 20 0 41 -5 47 -11 8 -8 25
-8 62 1 56 13 63 10 90 -42 11 -22 21 -28 47 -28 22 0 45 -10 66 -28 18 -15
49 -39 69 -54 22 -17 40 -40 47 -65 8 -27 20 -42 42 -51 25 -11 30 -19 30 -48
0 -21 10 -50 25 -72 16 -23 25 -51 25 -75 0 -31 7 -46 35 -74 20 -20 37 -49
41 -69 5 -25 20 -46 53 -74 28 -24 52 -55 60 -77 7 -21 32 -56 55 -78 22 -22
48 -50 57 -61 12 -15 33 -23 71 -28 l55 -7 13 -113 c7 -62 10 -125 7 -138 -6
-24 -10 -25 -39 -18 -139 35 -221 84 -341 205 -28 28 -97 136 -97 151 0 7 -3
14 -8 16 -15 6 -53 140 -63 220 -7 58 -20 101 -41 143 -35 67 -52 84 -86 85
-18 0 -22 -4 -17 -19 5 -15 -1 -19 -37 -24 -24 -3 -62 -3 -86 0 -27 4 -52 1
-68 -7 -31 -17 -31 -30 0 -30 35 0 44 -21 18 -38 -12 -8 -22 -20 -22 -27 0 -7
-18 -20 -40 -29 -68 -27 -138 -109 -77 -91 12 4 26 11 32 16 14 14 21 11 32
-14 6 -12 32 -34 59 -47 27 -14 51 -27 54 -31 3 -3 15 -12 28 -18 43 -23 110
-84 130 -119 17 -31 15 -133 -4 -170 -14 -29 -14 -35 0 -64 21 -41 20 -55 -4
-68 -27 -15 -25 -28 5 -36 36 -9 114 51 115 87 0 30 19 89 28 89 13 0 29 -15
42 -39 14 -28 16 -31 62 -84 31 -38 167 -137 187 -137 5 0 11 -4 13 -8 2 -4
41 -27 88 -51 47 -24 87 -47 90 -50 3 -3 19 -13 35 -21 61 -30 95 -55 95 -72
0 -9 -14 -28 -31 -43 -41 -34 -31 -42 26 -21 69 27 115 79 176 200 45 91 112
186 130 186 2 0 5 -49 5 -108 2 -146 38 -262 104 -332 16 -17 30 -34 30 -36 0
-17 -44 -86 -58 -90 -9 -3 -35 -14 -57 -24 -40 -18 -85 -30 -183 -50 -87 -17
-250 16 -352 72 -52 29 -145 131 -166 183 -22 51 -52 69 -119 67 -70 -1 -86
-23 -25 -35 20 -4 30 -12 30 -24 0 -32 -14 -40 -72 -45 -57 -5 -89 -22 -109
-59 -8 -15 -5 -16 19 -10 29 8 72 -5 72 -23 0 -6 -9 -17 -19 -23 -26 -16 -76
-91 -85 -125 -8 -35 8 -44 33 -17 12 14 24 18 33 13 7 -5 51 -7 98 -6 69 3 94
-1 134 -17 86 -37 132 -109 119 -187 -5 -27 -1 -38 16 -54 l23 -19 -23 -30
c-48 -65 14 -52 90 19 48 45 53 53 44 73 -35 74 -42 118 -24 146 10 15 130 12
331 -9 114 -13 261 -7 386 15 43 7 80 12 82 10 2 -2 -1 -20 -7 -41 -20 -74 11
-49 57 46 27 56 28 69 20 215 -4 73 17 121 79 183 37 37 44 40 49 25 3 -10 10
-28 15 -41 6 -15 5 -30 -2 -43 -6 -12 -13 -62 -16 -112 -4 -67 -12 -107 -29
-145 -13 -29 -24 -62 -24 -74 0 -48 -26 -104 -68 -145 -24 -24 -47 -43 -51
-43 -5 0 -21 -18 -37 -41 -15 -22 -44 -49 -63 -60 -35 -19 -50 -28 -101 -60
-72 -46 -266 -99 -420 -115 -25 -3 -55 -10 -68 -17 -18 -8 -28 -8 -43 1 -16
10 -27 10 -53 1 -25 -9 -41 -9 -66 0 -18 6 -68 11 -112 11 -59 0 -89 5 -118
20 -22 11 -46 20 -54 20 -9 0 -44 13 -78 29 -35 16 -82 37 -106 47 -38 15
-127 67 -157 91 -5 4 -23 15 -40 23 -80 39 -136 84 -199 160 -25 31 -123 144
-151 174 -48 53 -138 204 -131 221 5 13 42 23 120 32 l49 5 -6 -36 c-6 -39 10
-49 33 -21 7 8 21 15 30 15 21 0 80 55 80 74 0 15 37 56 50 56 6 0 10 -10 10
-22 0 -13 5 -30 10 -38 9 -13 12 -12 25 5 9 11 22 28 31 39 18 21 21 83 5 99
-14 14 -14 67 0 67 6 0 25 -12 43 -27 l31 -26 3 59 c3 56 2 60 -32 91 -59 54
-72 93 -32 93 44 0 57 9 45 33 -27 49 -81 87 -123 87 -30 0 -37 34 -9 44 13 5
5 13 -35 33 -50 25 -53 25 -86 9 -22 -10 -45 -14 -61 -10 l-26 6 20 22 c12 12
21 25 21 29 0 4 -22 7 -49 7 -43 0 -52 -4 -87 -40 -48 -49 -74 -53 -74 -10 0
37 -12 33 -60 -23 -29 -33 -33 -45 -31 -88 1 -34 -4 -55 -14 -66 -9 -8 -19
-29 -22 -45 -8 -40 -17 -21 -32 67 -7 39 -17 94 -22 124 -5 30 -9 88 -9 129 0
67 -2 73 -17 67 -10 -4 -26 -10 -35 -12 -10 -3 -18 -9 -18 -14 0 -5 -7 -9 -16
-9 -8 0 -23 -4 -33 -9 -15 -9 -16 -19 -9 -91 4 -45 16 -101 27 -126 24 -53 23
-60 -7 -56 -24 3 -24 8 -7 -74 3 -14 19 -37 35 -51 36 -30 39 -53 8 -53 -13 0
-18 -4 -13 -8 6 -4 16 -19 24 -34 7 -15 29 -43 48 -63 24 -26 32 -40 24 -48
-11 -11 2 -46 22 -58 16 -11 -3 -30 -24 -24 -11 4 -19 2 -19 -5 0 -12 41 -70
75 -106 11 -12 27 -30 35 -41 8 -10 22 -27 30 -37 14 -18 13 -19 -27 -14 -38
5 -42 4 -33 -10 21 -38 98 -111 138 -131 49 -25 51 -48 4 -43 -18 2 -32 1 -32
-2 0 -17 106 -107 145 -123 54 -22 58 -41 10 -45 l-35 -3 24 -27 c13 -16 26
-28 30 -28 4 0 16 -9 28 -20 21 -19 47 -25 97 -22 25 1 65 -34 55 -49 -3 -5
-16 -9 -30 -9 -13 0 -24 -4 -24 -10 0 -5 5 -10 11 -10 6 0 29 -13 52 -28 51
-34 92 -52 118 -52 21 0 59 -19 71 -35 13 -18 8 -25 -17 -25 -14 0 -25 -4 -25
-10 0 -5 6 -10 14 -10 8 0 16 -3 18 -7 9 -22 94 -53 142 -53 51 0 106 -17 106
-33 0 -4 -11 -13 -25 -19 -40 -18 -29 -33 33 -46 98 -19 145 -23 195 -13 27 5
57 6 68 4 18 -5 19 -7 4 -29 l-15 -24 98 0 c98 0 118 6 160 46 7 8 26 11 50 7
47 -7 49 -10 34 -33 -7 -11 -12 -22 -12 -25 0 -17 165 8 184 29 6 6 18 24 26
40 8 16 21 30 30 33 8 2 24 9 34 15 17 9 18 7 12 -30 l-6 -41 30 10 c16 5 43
13 59 18 45 14 77 39 96 74 30 56 85 66 85 15 0 -23 1 -23 47 4 51 29 123 98
123 119 0 22 26 43 45 35 8 -3 15 -12 15 -21 0 -8 2 -15 5 -15 8 0 47 23 62
36 17 17 53 82 53 99 0 20 22 65 32 65 4 0 8 -9 8 -19 0 -46 36 -36 70 19 14
22 28 40 32 40 10 0 22 62 19 101 -3 48 13 57 35 19 10 -16 23 -31 29 -34 6
-2 23 35 39 86 l28 89 -21 51 c-11 27 -18 54 -15 59 11 18 29 8 45 -23 22 -45
35 -45 43 -1 13 81 7 146 -17 187 -35 57 -15 117 23 71 7 -8 16 -15 21 -15 15
0 10 83 -7 115 -43 77 -52 100 -42 104 5 2 24 -13 43 -33 18 -20 35 -36 39
-36 10 0 7 72 -5 113 -8 30 -16 39 -40 44 -59 12 -15 53 58 53 26 0 42 -7 58
-26 23 -26 45 -110 45 -168 0 -36 -25 -162 -40 -201 -13 -35 -14 -35 15 -35
35 0 75 -42 75 -77 0 -29 -55 -144 -87 -184 -36 -45 -99 -106 -145 -140 -45
-35 -46 -37 -30 -55 28 -31 42 -72 42 -125 0 -54 -20 -93 -70 -137 -58 -51
-199 -102 -285 -102 -42 0 -45 -2 -72 -48 -15 -26 -33 -53 -40 -60 -7 -7 -16
-19 -20 -25 -10 -17 -99 -68 -143 -84 -53 -18 -148 -43 -210 -54 -66 -12 -342
-38 -420 -40 -48 -1 -51 -2 -25 -9 155 -43 395 -47 587 -11 200 38 495 181
663 320 82 68 248 245 284 302 22 35 45 69 50 75 10 12 87 162 102 199 93 227
103 532 26 815 -13 47 -31 102 -40 124 -9 21 -17 44 -17 51 0 6 -3 14 -6 18
-3 3 -21 39 -38 79 -69 156 -197 310 -336 400 -77 51 -138 83 -144 77 -1 -2
-21 -42 -44 -89 -60 -123 -148 -200 -229 -200 -35 0 -35 1 -19 19 12 13 14 21
6 26 -8 5 -8 11 1 21 10 12 -9 14 -125 14 -110 0 -136 3 -136 14 0 8 7 16 15
20 27 10 16 25 -22 28 l-38 3 40 25 c31 20 56 26 116 28 l76 4 -28 51 c-32 58
-37 108 -13 128 8 7 39 13 68 13 52 0 79 -8 161 -44 75 -33 80 -32 83 29 4 61
32 111 62 111 47 0 162 -96 242 -200 15 -19 38 -48 51 -63 l25 -28 22 35 c22
37 69 76 90 76 11 0 40 -27 83 -79 17 -22 47 -82 65 -136 15 -44 54 -219 67
-298 6 -37 6 -37 45 -31 21 4 50 4 64 0 62 -15 111 -114 102 -203 -14 -131
-31 -211 -59 -292 -15 -43 -15 -45 11 -79 77 -100 69 -256 -20 -419 -32 -58
-103 -168 -122 -189 -6 -6 -29 -33 -51 -59 -22 -27 -82 -95 -132 -151 -51 -57
-93 -105 -93 -108 0 -6 71 34 80 44 3 3 20 17 39 30 46 32 104 84 160 144 25
27 55 58 67 70 58 60 224 345 224 385 0 6 4 19 10 29 19 35 59 169 69 237 6
39 15 97 20 129 13 88 13 238 1 309 -35 201 -34 197 -86 332 -14 39 -28 78
-31 88 -3 9 -8 17 -12 17 -3 0 -13 15 -20 32 -24 54 -89 161 -116 192 -14 16
-25 32 -25 35 0 9 -137 149 -195 200 -42 36 -109 82 -230 158 -11 7 -36 20
-55 29 -19 9 -44 20 -55 25 -11 5 -62 24 -114 42 -73 26 -99 40 -119 65 l-25
32 83 0 c76 0 82 1 77 19 -3 14 9 29 49 58 50 35 68 67 44 75 -6 2 1 26 16 55
28 57 26 88 -6 96 -38 10 -23 30 18 22 48 -9 60 -20 44 -45 -11 -18 -8 -22 28
-45 42 -26 49 -42 28 -63 -16 -16 2 -29 52 -37 44 -8 80 -22 80 -32 0 -5 -10
-13 -21 -18 -12 -6 -22 -14 -21 -20 0 -9 69 -48 105 -59 24 -7 22 -36 -3 -36
-11 0 -20 -3 -20 -7 0 -14 82 -83 105 -89 14 -3 25 -9 25 -13 0 -3 14 -12 30
-19 17 -8 30 -20 30 -28 0 -9 -11 -14 -30 -14 -16 0 -30 -4 -30 -9 0 -15 44
-55 98 -90 28 -18 52 -37 52 -42 0 -5 -15 -9 -32 -9 l-33 -1 41 -37 c57 -52
83 -72 93 -72 5 0 12 -7 15 -16 5 -13 1 -14 -24 -9 -51 11 -38 -26 30 -87 33
-29 60 -57 60 -62 0 -5 -7 -17 -16 -27 -18 -20 -22 -9 72 -186 30 -58 80 -189
126 -330 11 -35 24 -63 29 -63 17 0 9 223 -16 435 -3 28 -11 94 -17 148 -11
102 -19 114 -53 77 -10 -11 -22 -17 -26 -14 -5 3 -9 42 -9 88 0 45 -3 86 -6
89 -4 3 -16 2 -26 -4 -31 -17 -40 1 -46 86 -4 72 -6 76 -26 71 -19 -5 -23 1
-35 52 -18 81 -42 151 -53 158 -5 3 -14 1 -21 -4 -9 -8 -25 14 -62 86 -38 74
-55 98 -72 100 -13 2 -23 -1 -23 -7 0 -29 -18 -5 -30 39 -8 28 -20 56 -27 62
-7 6 -13 16 -13 22 0 7 -6 18 -12 24 -10 10 -16 8 -29 -9 l-16 -22 -19 23
c-11 12 -24 27 -29 34 -6 6 -22 27 -35 46 -40 57 -91 107 -97 93 -9 -25 -39
-12 -101 42 -68 59 -78 63 -107 41 -22 -16 -40 -6 -100 50 -82 78 -207 166
-234 165 -9 0 -32 -3 -51 -6 -19 -3 -65 -11 -102 -16 -38 -6 -68 -15 -68 -19
0 -10 45 -42 82 -57 19 -9 25 -17 21 -31 -5 -20 8 -27 125 -67 21 -8 6 -22
-54 -51 -38 -18 -53 -31 -50 -41 3 -8 -5 -29 -18 -46 -28 -37 -66 -115 -66
-134 0 -7 11 -13 24 -13 21 0 25 -6 31 -47 10 -76 26 -114 45 -108 12 4 30
-12 58 -50 23 -31 42 -59 42 -64 0 -4 -84 -13 -187 -20 -104 -6 -210 -18 -238
-25 -124 -34 -191 -64 -242 -110 -15 -13 -39 -34 -53 -45 l-25 -20 23 -1 c12
0 22 -4 22 -10 0 -5 7 -10 17 -10 23 0 86 -69 111 -123 37 -79 29 -229 -15
-275 -7 -8 -18 -22 -23 -32 -10 -20 -117 -76 -126 -67 -3 3 0 14 7 26 7 11 11
23 7 26 -3 3 -34 1 -69 -6 -35 -6 -80 -13 -99 -16 l-35 -4 24 19 23 19 -43 11
c-24 6 -63 14 -86 17 -24 4 -46 11 -49 16 -7 12 14 39 39 48 17 6 15 11 -18
43 -27 26 -37 45 -38 69 -2 32 0 34 27 31 l29 -3 -6 70 c-5 58 -3 71 9 71 8 0
14 -5 14 -12 0 -24 17 8 35 65 18 62 36 77 65 59 15 -9 20 -6 30 21 37 96 65
137 95 137 17 0 17 -1 -2 -47 -3 -7 -1 -13 4 -13 14 0 73 67 73 83 0 17 20 37
37 37 7 0 13 -7 13 -15 0 -8 4 -15 8 -15 14 0 80 68 87 89 7 24 35 29 35 6 0
-14 3 -13 24 2 29 22 66 77 66 99 0 12 6 15 24 10 20 -5 30 0 50 27 15 19 26
39 26 46 0 28 40 89 57 87 16 -1 18 7 17 64 0 36 -3 78 -5 95 -3 25 0 31 19
33 12 2 22 10 22 19 0 17 -35 70 -62 94 -19 18 -24 49 -8 49 21 0 9 34 -21 61
-20 18 -54 33 -93 42 -42 9 -62 19 -64 30 -5 25 37 37 124 37 76 0 92 10 52
32 -16 8 -68 11 -168 10 -79 -1 -158 2 -175 7 -16 5 -55 12 -86 16 -52 6 -59
4 -82 -19z m83 -35 c0 -10 -58 -23 -71 -15 -5 3 -7 10 -4 15 8 11 75 12 75 0z
m-1150 -428 c-1 -13 -38 -53 -49 -53 -20 0 -11 37 12 48 27 13 37 14 37 5z
m2108 -65 c17 -17 15 -118 -3 -161 -29 -70 -110 -105 -163 -71 -90 58 -98 126
-24 197 38 36 165 60 190 35z m-2788 -958 c0 -16 -4 -30 -10 -30 -11 0 -14 43
-3 53 11 12 13 8 13 -23z m481 -844 c84 -35 123 -101 124 -207 0 -67 -3 -80
-27 -111 -50 -65 -161 -97 -235 -67 -77 32 -97 43 -124 71 -26 28 -29 36 -25
82 5 57 15 96 25 96 4 0 13 22 20 49 19 75 56 99 152 100 31 1 72 -5 90 -13z"/>
</g>
</svg>
